<?xml version="1.0" encoding="UTF-8"?>
<svg id="Layer_2" data-name="Layer 2" xmlns="http://www.w3.org/2000/svg" viewBox="0 0 464.45 730.22">
  <defs>
    <style>
      .cls-1 {
        fill: #fff;
      }
    </style>
  </defs>
  <g id="Layer_1-2" data-name="Layer 1">
    <g>
      <path class="cls-1" d="M126.43,159.98c-2.92.48-2.44-2.44-2.58-2.58.15.14,3.06-.34,2.58,2.58Z"/>
      <path class="cls-1" d="M103.21,134.18c-3.08-3.04-9.25-4.56-7.74-10.32l-21.93,5.16-9.03-14.19,12.9-12.9-2.58-3.87c4.15,1.42,5.43-2.4,6.45-2.58,9.16-1.65,18.5-.77,25.8-7.74l9.03,1.29-2.58-2.58c3.32-1.17,12.95-11.27,14.19-11.61,3.35-.92,9.04.69,12.9,0,.96-.17,9.22-4.93,10.32-5.16,4.45-.92,10.02,2.02,12.9-2.58l9.03,11.61-18.06,18.06c0,.84,2.3,1.53,2.58,2.58,2.04,7.66,2.98,15.62,5.16,23.22.48,1.68,6.29,5.46,7.74,7.74l-5.16,2.58,14.19,1.29c5.48-5.18,12.12-5.8,19.35-5.16l2.58,11.61-12.9,12.9c4.82,2.03,4.43,7.91,5.16,9.03-1.4-1.72-7.43-4.61-9.03-7.74l-9.03,5.16c.16,4.27-.24,8.65,0,12.9-.62-.27-2.15.46-2.58-1.29.6-14.3-6.91-2.13-11.61,1.29-.53.39-1.96-.42-2.58,0-3.89,2.63-4.58,6.99-11.61,5.16-.5.41,6.41,8.65,7.74,10.32-.81-.4-2.56.54-3.87,0-2.09-.86-5.26-6.12-7.74-7.74-7.2,5.52-15.7,7.87-23.22,10.32-1.06.35-1.61,2.36-2.58,2.58-4.74,1.08-11.34.59-14.19-3.87-.22-.35-2.54-5.61-1.29-6.45,4.11-1.61,3.54-7.41,3.87-7.74.48-.48,2.65.68,3.87,0,2.87-1.6,5.97-6.86,9.03-9.03v-2.58c-4.36-2.39-1.63-6.84-2.58-10.32-.46-1.69-6.18-11.02-7.74-14.19l5.16-2.58c-1.01,6.98,3.87,12.55,7.74,18.06l-2.58,1.29,2.58,9.03c3.17.45,4.83-5.01,5.16-5.16,1.37-.61,4.61.55,6.45,0,3.73-1.11,11.13-23.49,20.64-12.9l11.61-9.03c-4.37-2.38-1.62-6.85-2.58-10.32-.08-.3-2.29-4.67-2.58-5.16-2.9-4.88-11.44-7.64-10.32-14.19,1.72,1.17,7.29,5.68,7.74,5.16l-6.45-15.48-1.29,10.32c-2.31-1.57-4.77-2.68-6.45-5.16l-37.41,15.48,5.16,15.48-5.16-12.9-7.74,3.87c4.77,1.95,4.51,8.09,5.16,9.03Z"/>
      <path class="cls-1" d="M214.16,242.55c-3.47-1.06-2.23-2.16-2.58-2.58,3.47,1.05,2.23,2.16,2.58,2.58Z"/>
      <path class="cls-1" d="M105.79,136.76c-1.73-1.38-1.95-1.96-2.58-2.58.1.15,1,.55,2.58,2.58Z"/>
      <path class="cls-1" d="M108.37,139.34c-3.24.09-2.44-2.47-2.58-2.58.11.14.94-.74,2.58,2.58Z"/>
      <path class="cls-1" d="M348.34,634.75c-.06-.13-2.14.42-2.58-1.29,0-1.64,2.49-1.17,2.58-1.29v2.58Z"/>
      <path class="cls-1" d="M123.85,157.4c-.49-.5-.98-.31-2.58-2.58,3.18-.18,2.45,2.45,2.58,2.58Z"/>
      <path class="cls-1" d="M221.9,325.12c-.11-.14-.94.74-2.58-2.58,2.94,1.75,2.44,2.47,2.58,2.58Z"/>
      <path class="cls-1" d="M224.49,327.7c-1.03-.91-1.26-.86-2.58-2.58,1.37,1.1,1.39,1.03,2.58,2.58Z"/>
      <path class="cls-1" d="M198.68,170.3c-1.55-2.21-4.84-7.34-5.16-7.74,1.14,1.74,4.64,7.06,5.16,7.74Z"/>
      <path class="cls-1" d="M227.07,330.28c-1.27-1.14-2.17-2.22-2.58-2.58.11.14.94-.74,2.58,2.58Z"/>
      <path class="cls-1" d="M211.58,188.36c-2.78-2-5.62-3.57-7.74-6.45-1.6-2.18-4.49-10.65-5.16-11.61,5.08,6.68,10.02,7.56,12.9,18.06Z"/>
      <path class="cls-1" d="M180.62,193.52c-.62-.27-2.16.46-2.58-1.29-.31-7.14-2.16-11.97-2.58-19.35.62.27,2.14-.47,2.58,1.29,1.53,6.86,2.58,11.62,2.58,19.35Z"/>
      <path class="cls-1" d="M232.23,717.32v2.58h-7.74v-2.58c2.31-.4,6.23.67,7.74,0Z"/>
      <path class="cls-1" d="M157.4,190.94c-.13-.15-1.18-.82-2.58-2.58,3.32,1.64,2.44,2.47,2.58,2.58Z"/>
      <path class="cls-1" d="M211.58,188.36c2.2,1.58,4.83,2.66,6.45,5.16l10.32-5.16c4.69-1.42,8.4,8.05,9.03,11.61l-10.32,10.32,23.22,50.32c.76.9,16.01-13.67,20.64-10.32l2.58,9.03-18.06,12.9c-1.46,5.14,2.12,6.33,2.58,7.74.52,1.6-.57,3.73,0,5.16,4.07,10.2,21.2,22.07,23.22,34.83-8.27-6.88-7.91-9.96-12.9-16.77-1.64-2.24-5.01-5.6-7.74-6.45l5.16,14.19c-1.63,9.25,3.23,15.78,2.58,24.51l15.48-5.16-2.58-10.32c2.72,2.26,6.48,2.42,5.16,7.74,2.2,2.2,9.79-4.74,11.61-5.16,3.51-.8,10.4,0,11.61,3.87,2.53,8.08-2.98,5.29-6.45,9.03l-9.03,2.58,5.16,14.19c4.99,13.71,9.92,27.8,15.48,41.28.57,1.39-.44,3.33,0,3.87l15.48-5.16,2.58,12.9-15.48,5.16c.34,2.89-.54,6.4,0,9.03,1.59,7.72,4.57,20.84,5.16,28.38.63,8.05-.44,16.45,0,24.51,3.73-.38,8.07.58,11.61,0,.96-.16,1.56-2.33,2.58-2.58,9.13-2.19,15.31,4.92,10.32,12.9-2.52,4.02-5.3,1.81-7.74,2.58-2.05.65-5,4.48-10.32,2.58l-3.87,6.45c4.28,2.53,1.8,6.61,2.58,10.32.61,2.89,4.84,13.01,5.16,15.48.68,5.26-.47,11.36,0,16.77,8.73.36,14.33,7.96,20.64,14.19-.4,4.16.59,8.93,0,12.9-3.61,24.3-3.81,36.17,2.58,59.35.94,3.4-2.35,4.12-2.58,5.16-1.64,7.32,1.17,19.08,0,27.09,4.91-.99,6.9,3.36,10.32,6.45v21.93h16.77l6.45,6.45c.97,9.79,6.95,17.05,5.16,27.09l19.35-2.58,7.74,2.58,7.74,10.32h37.41v2.58H0v-2.58h180.62v-165.14c4.49.51,9.97-.75,14.19,0,.43.08,6.15,2.02,7.74,2.58,1.49.52,2.2,3.95,6.45,2.58v-5.16l11.61,5.16-1.29-10.32,10.32-2.58v-5.16c13.27,2.12,21.3-11.75,33.54-12.9v-20.64c4.54-.58,2.46,5.85,2.58,9.03.11,3.01-.07,6.05,0,9.03h12.9l-2.58-12.9,5.16,6.45v3.87h15.48v20.64c4.57.58,2.42-5.82,2.58-9.03.19-3.86-.12-7.77,0-11.61,7.91-1.02,18.2,4.68,15.48-7.74l2.58,10.32,12.9,2.58-2.58-11.61-2.58-24.51-5.16,3.87-2.58,14.19,2.58-28.38-18.06,2.58c.99,4.91-3.36,6.9-6.45,10.32-2.12-3.87-5.21-1.85-7.74-2.58-1.44-.41-3.72-4.74-5.16-5.16-4.83-1.4-6.91,3.21-11.61,2.58l5.16,20.64-5.16-15.48-5.16,5.16v-10.32c-3.73.38-8.06-.57-11.61,0-1.25.2-4.31,4.26-10.32,2.58-1.06-.3-2.48-2.99-3.87-3.87v-11.61l20.64-2.58c-.34-2.89.54-6.4,0-9.03-.51-2.47-4.26-10.04-5.16-12.9-1.25-3.97-3.46-7.14-2.58-11.61l7.74,14.19v7.74l5.16,6.45c.1-7.28-.15-14.63,0-21.93.06-3.14-1.93-9.63,2.58-9.03v33.54c5.18.15,10.09,1.06,12.9-3.87.69-1.2-.48-3.38,0-3.87.19-.19,2.33.4,5.16-1.29,4.7-2.81-1.21-4.85,0-9.03l5.16,7.74h7.74v5.16h15.48v-9.03l-20.64-45.16-5.16,1.29c-.11,2.69,4.62,7.6-1.29,9.03-3.86.93-9.87-.63-14.19,0l-2.58-5.16v12.9l-2.58-10.32c-2.4-2.34-16.2,5.01-19.35,7.74-7.84-.51-13.56,4.18-21.93,2.58-2.26-11.4,5.45-15.51,15.48-15.48l-5.16-20.64,5.16,9.03,3.87,9.03,21.93-7.74v-54.19c-4.8,1.57-7.53,5.51-2.58,9.03-4.4,2.68,1.56,5.76,0,11.61l-16.77-20.64-21.93,11.61,5.16,14.19-5.16-6.45v-6.45l-16.77,5.16-6.45-9.03,18.06-9.03-2.58-6.45-2.58-16.77,5.16,9.03,2.58,11.61,15.48-5.16c-2.24-2.94-1.85-5.04-2.58-7.74,1.42,1.03,7.35,5.63,7.74,5.16l-2.58-10.32h5.16v-10.32l2.58,5.16h10.32l5.16,5.16-2.58-21.93c-5.56-7.18-3.43-21.13-7.74-28.38-1.77-2.97-6.77-5.93-9.03-9.03l-11.61,6.45,2.58,9.03-15.48,5.16v-5.16l-12.9,6.45v5.16c2.91,1.3,2.12,4.39,2.58,5.16,2.7,4.54,4.61,5.25,7.74,11.61-1.55-.92-3.36-2.18-5.16-2.58-1.76,2.03,7.32,12.23,0,12.9l-2.58-16.77-7.74-7.74,1.29-6.45-23.22,15.48-6.45-9.03,18.06-15.48-23.22-28.38,15.48,12.9c1.13,3.91,4.03,7.79,6.45,11.61,2.24,3.54,5.47,2.65,9.03,2.58-.38-3.73.58-8.07,0-11.61-1.34-8.25-4.42-14.17-5.16-24.51.87.28,2.27-.37,2.58,0-1.52,7.84,3.92,15.78,5.16,21.93.53,2.65-.34,6.14,0,9.03l10.32-2.58-2.58-3.87,2.58-14.19,12.9,6.45c.87,1.23,6.01-1.02,6.45-1.29,1.24-.76,5.03-3.77,2.58-5.16-7.79-7.39-15.04-15-21.93-23.22,1.07.33,2.66-.5,3.87,0,4.85,1.99,15.81,18.06,21.93,21.93l7.74-1.29-12.9-29.67-11.61-21.93c-2.73,2.23-5.01,5.73-7.74,7.74-.54.39-1.98-.42-2.58,0-3.17,2.21-4.15,6.48-9.03,5.16-1.28,6.44,3.77,10.74,7.74,15.48-1.07-.32-2.66.5-3.87,0-2.55-1.05-5.3-7.34-9.03-7.74l-1.29,5.16h-3.87c-1.96,4.74,2.42,8.13,2.58,9.03.47,2.68-.21,6.09,0,9.03-.87-.28-2.27.37-2.58,0v-6.45l-6.45-11.61-21.93,10.32,3.87,12.9-7.74-7.74-15.48,5.16c-12.13-9.1-4.7-13.86,3.87-21.93v-5.16l-15.48-28.38,7.74,7.74,11.61,24.51,21.93-16.77c-.39-2.44.58-5.65,0-7.74-.25-.92-10.7-11.74-12.9-14.19.65.48,2.85-.74,3.87,0,4.95,3.58,6.32,9.75,14.19,7.74,0-3.43,0-6.89,0-10.32.62.27,2.16-.46,2.58,1.29v7.74l9.03,6.45,21.93-14.19c-3.43-1.89-1.99-4.3-2.58-6.45ZM252.87,278.67v-5.16h-2.58v5.16h2.58ZM291.57,340.6l-20.64,7.74v34.83l16.77,21.93,21.93-5.16c-.34-2.88.54-6.4,0-9.03-2.14-10.39-9.14-22.25-10.32-33.54l-7.74-16.77ZM267.06,350.92c-1.68,0-1.68,2.58,0,2.58s1.68-2.58,0-2.58ZM259.32,363.82c-1.68,0-1.68,2.58,0,2.58s1.68-2.58,0-2.58ZM272.22,389.62c-1.68,0-1.68,2.58,0,2.58s1.68-2.58,0-2.58ZM273.51,402.53v-5.16h-2.58v5.16h2.58ZM277.38,397.36c-1.68,0-1.68,2.58,0,2.58s1.68-2.58,0-2.58ZM314.8,412.85l-14.19,2.58-3.87,6.45,15.48,28.38v5.16l7.74,14.19c1.44-5.06-2.22-7.58-2.58-11.61-.89-9.95,1.07-21.15,0-30.96-.1-.94-2.43-1.6-2.58-2.58-.56-3.56.37-7.88,0-11.61ZM237.39,567.66v-5.16h-2.58v5.16h2.58ZM270.93,657.97c-.09-.12-2.18.45-2.58-1.29-.68-2.99,1.36-7.07-1.29-9.03l1.29-7.74-7.74,5.16v-5.16c-4.55.81-8.47-2.56-7.74-7.74l7.74,1.29,6.45-1.29,6.45-5.16-19.35,2.58-3.87-3.87v-41.28c0-.66,5.85-4.11,1.29-6.45-5.1,4.91-14.01,1.85-20.64,2.58-.94.1-1.64,2.48-2.58,2.58-5.6.59-13.13-1.07-18.06,0-2.4.52-7.66,6.63-11.61,5.16v95.47c3.06-1.23,4.99-3.78,9.03-2.58,5.78,1.71,14.83-1.58,20.64-2.58,17.49-3,32.61-5.27,51.61-7.74,4.45-.58,9.6.39,14.19,0l-9.03-2.58c-3.18-5.67-6.86-4.01-10.32-5.16-1.78-.59-1.17-2.49-1.29-2.58l2.58-1.29v-11.61h-5.16c.56,2.99-.87,8.18,0,10.32ZM348.34,632.17c.38-.51.72-3.25,2.58-3.87l-2.58-5.16,1.29-6.45c-4.44,4.46-12.23,2.39-18.06,2.58-2.98.1-7.1-1.69-6.45,2.58,4.64-.75,5.69,0,9.03,2.58,5.48,4.22,13.05,10.63,5.16,15.48h-5.16l-1.29,7.74,10.32-7.74,1.29,10.32c3.99-.28,5.05-12.86,3.87-15.48l2.58-1.29-2.58-1.29ZM322.54,621.85h-7.74v2.58h7.74v-2.58ZM319.96,632.17c-9.25-1.96-3.94,9.49-5.16,14.19l10.32,6.45,2.58-12.9-7.74,5.16v-12.9ZM281.25,655.39l12.9-9.03-9.03-1.29-2.58,2.58-1.29,7.74ZM185.78,647.65v79.99c4.51.6,2.52-5.88,2.58-9.03.1-4.87-.73-11.09,0-15.48.16-.99,2.58-1.72,2.58-2.58s-2.42-1.59-2.58-2.58c-1.83-11.01.25-29.05,0-41.28-.06-3.15,1.92-9.63-2.58-9.03ZM225.78,683.78c-1.68,0-1.68,2.58,0,2.58s1.68-2.58,0-2.58ZM319.7,683.26l-2.84,8.51,8.51,2.84,2.84-8.51-8.51-2.84ZM308.34,727.64c11.72,1.95,27.7-1.42,39.99,0l-6.45-7.74h-3.87v-5.16c-5.43.76-9.7-7.47-10.32,1.29-.38,5.38,2.01,7.47-5.16,6.45-.47-3.64.72-8.3,0-11.61-.15-.71-4.54-11.49-5.16-12.9-.83-1.9-3.64-5.83-5.16-7.74s-3.75-4.69-6.45-3.87c-1.67,2.27-5.16,4.28-6.45,6.45-.33.56.36,1.78,0,2.58-.51,1.12-2.37,1.66-2.58,2.58-.78,3.48-.67,19.41,0,23.22.18,1.01,4,2.31,2.58,6.45,3.91,1.41,5.91-2.58,6.45-2.58.86,0,1.59,2.42,2.58,2.58ZM232.23,719.9c1.54-1.16,1.43-1.06,2.58-2.58.09-.12,1.98.49,2.58-1.29l2.58-9.03c-9.87-.57-17.55-.54-25.8,5.16l-2.58-7.74,2.58,11.61c4.31,5.8,9.41,8.13,16.77,6.45,1.74-.4,1.17-2.49,1.29-2.58ZM366.4,719.9l-6.45-2.58-9.03,3.87,12.9,6.45,2.58-7.74Z"/>
      <path class="cls-1" d="M237.39,343.18c-7.82-5.68-6.8-5.75-10.32-12.9,2.55,2.29,9.06,5.89,10.32,9.03.48,1.19-.3,2.75,0,3.87Z"/>
      <path class="cls-1" d="M159.98,193.52c-.26-.3-1.28-1.02-2.58-2.58,1.88,1.44,1.98,1.98,2.58,2.58Z"/>
      <path class="cls-1" d="M234.81,717.32h-2.58c.13-.06-.37-2.58,1.29-2.58l1.29,2.58Z"/>
      <path class="cls-1" d="M162.56,196.1c-.39-.44-1.36-1.17-2.58-2.58.81.8,2.43,2.47,2.58,2.58Z"/>
      <path class="cls-1" d="M273.51,660.55c-1.54-1.15-1.43-1.04-2.58-2.58.07.17,3.04-.4,2.58,2.58Z"/>
      <polygon class="cls-1" points="237.39 399.95 234.81 399.95 232.23 387.04 234.81 387.04 237.39 399.95"/>
      <polygon class="cls-1" points="129.01 190.94 131.59 190.94 134.18 197.39 132.88 198.68 129.01 190.94"/>
      <rect class="cls-1" x="250.29" y="441.23" width="2.58" height="5.16"/>
      <path class="cls-1" d="M285.12,436.07c1.68,0,1.68,2.58,0,2.58s-1.68-2.58,0-2.58Z"/>
      <path d="M270.93,657.97c-.87-2.14.56-7.33,0-10.32h5.16v11.61l-2.58,1.29c.46-2.98-2.51-2.41-2.58-2.58Z"/>
      <path d="M273.51,660.55c.12.09-.49,1.99,1.29,2.58,3.47,1.15,7.14-.51,10.32,5.16l9.03,2.58c-4.59.39-9.74-.58-14.19,0-18.99,2.47-34.12,4.74-51.61,7.74-5.81,1-14.86,4.3-20.64,2.58-4.04-1.2-5.97,1.35-9.03,2.58v-95.47c3.95,1.47,9.21-4.64,11.61-5.16,4.93-1.07,12.47.59,18.06,0,.94-.1,1.64-2.48,2.58-2.58,6.63-.73,15.54,2.33,20.64-2.58,4.56,2.34-1.29,5.8-1.29,6.45v41.28l3.87,3.87,19.35-2.58-6.45,5.16-6.45,1.29-7.74-1.29c-.73,5.18,3.19,8.56,7.74,7.74v5.16l7.74-5.16-1.29,7.74c2.65,1.96.61,6.04,1.29,9.03.4,1.74,2.49,1.17,2.58,1.29,1.15,1.54,1.04,1.43,2.58,2.58ZM232.23,596.05l-12.9,1.29,12.9,3.87c-.28,4.33-4.31,4.14-6.45,5.16-3.25,1.55-1.03,3.61-6.45,0,.64,11.75,12.66,9.44,18.06,1.29l-5.16-11.61ZM237.39,639.91c-6.15,1.16-10.49-4.31-16.77-2.58-2.03.56-11.14,10.79-9.03,12.9h5.16v12.9l2.58-5.16c2.63-.82,7.08,1.58,7.74,3.87,1.4,4.82-3.21,6.91-2.58,11.61l15.48-6.45-10.32-1.29-2.58-6.45,3.87-3.87h7.74l1.29,7.74,5.16-3.87c-4.37-2.39-1.62-6.85-2.58-10.32-.61-2.22-7.06-4.16-5.16-9.03ZM207.71,655.39c-1.68,0-1.68,2.58,0,2.58s1.68-2.58,0-2.58Z"/>
      <path d="M149.66,108.37l1.29-10.32,6.45,15.48c-.45.52-6.02-3.99-7.74-5.16-1.12,6.55,7.42,9.31,10.32,14.19.29.49,2.5,4.86,2.58,5.16.96,3.47-1.79,7.94,2.58,10.32l-11.61,9.03c-9.51-10.58-16.91,11.79-20.64,12.9-1.84.55-5.08-.61-6.45,0,.48-2.92-2.43-2.44-2.58-2.58-.13-.13.6-2.76-2.58-2.58-3.88-5.51-8.75-11.08-7.74-18.06l-5.16,2.58c-1.64-3.32-2.47-2.44-2.58-2.58-1.58-2.03-2.48-2.43-2.58-2.58-.65-.94-.39-7.08-5.16-9.03l7.74-3.87,5.16,12.9-5.16-15.48,37.41-15.48c1.68,2.48,4.14,3.59,6.45,5.16Z"/>
      <path d="M123.85,157.4c.14.14-.34,3.06,2.58,2.58-.33.15-1.99,5.61-5.16,5.16l-2.58-9.03,2.58-1.29c1.6,2.27,2.09,2.08,2.58,2.58Z"/>
      <path d="M193.52,162.56c.33.4,3.61,5.53,5.16,7.74.67.96,3.56,9.43,5.16,11.61,2.12,2.89,4.96,4.45,7.74,6.45.59,2.15-.85,4.56,2.58,6.45l-21.93,14.19-9.03-6.45v-7.74c-.42-1.75-1.96-1.02-2.58-1.29,0-7.73-1.05-12.49-2.58-19.35-.44-1.76-1.96-1.02-2.58-1.29-.24-4.26.16-8.64,0-12.9l9.03-5.16c1.6,3.14,7.63,6.02,9.03,7.74Z"/>
      <path d="M154.82,188.36c-1.34-1.67-8.24-9.91-7.74-10.32,7.03,1.83,7.72-2.53,11.61-5.16.62-.42,2.05.39,2.58,0,4.7-3.42,12.21-15.59,11.61-1.29.43,1.75,1.96,1.02,2.58,1.29.42,7.38,2.27,12.22,2.58,19.35.42,1.75,1.96,1.02,2.58,1.29,0,3.43,0,6.89,0,10.32-7.87,2.01-9.24-4.16-14.19-7.74-1.02-.74-3.22.48-3.87,0-.15-.11-1.77-1.78-2.58-2.58-.6-.6-.7-1.14-2.58-2.58-.14-.11.74-.94-2.58-2.58ZM166.43,183.2l-1.29,1.29,3.87,3.87,1.29-1.29-3.87-3.87ZM171.59,190.94c-1.68,0-1.68,2.58,0,2.58s1.68-2.58,0-2.58ZM174.17,196.1c-1.68,0-1.68,2.58,0,2.58s1.68-2.58,0-2.58Z"/>
      <path d="M0,727.64V0h464.45v727.64h-37.41l-7.74-10.32-7.74-2.58-19.35,2.58c1.79-10.04-4.19-17.3-5.16-27.09l-6.45-6.45h-16.77v-21.93c-3.42-3.09-5.41-7.45-10.32-6.45,1.17-8.02-1.64-19.78,0-27.09.23-1.04,3.52-1.76,2.58-5.16-6.39-23.18-6.19-35.05-2.58-59.35.59-3.98-.4-8.74,0-12.9-6.31-6.23-11.91-13.83-20.64-14.19-.47-5.41.68-11.52,0-16.77-.32-2.47-4.55-12.59-5.16-15.48-.78-3.71,1.7-7.79-2.58-10.32l3.87-6.45c5.32,1.9,8.27-1.93,10.32-2.58,2.44-.77,5.23,1.44,7.74-2.58,4.99-7.98-1.19-15.1-10.32-12.9-1.02.25-1.62,2.42-2.58,2.58-3.54.58-7.88-.38-11.61,0-.44-8.07.63-16.47,0-24.51-.59-7.54-3.58-20.67-5.16-28.38-.54-2.64.34-6.15,0-9.03l15.48-5.16-2.58-12.9-15.48,5.16c-.44-.54.57-2.48,0-3.87-5.57-13.49-10.5-27.57-15.48-41.28l-5.16-14.19,9.03-2.58c3.47-3.74,8.98-.95,6.45-9.03-1.21-3.86-8.1-4.67-11.61-3.87-1.82.42-9.41,7.36-11.61,5.16,1.32-5.32-2.44-5.48-5.16-7.74l2.58,10.32-15.48,5.16c.65-8.73-4.21-15.27-2.58-24.51l-5.16-14.19c2.73.85,6.1,4.21,7.74,6.45,4.99,6.81,4.63,9.89,12.9,16.77-2.03-12.76-19.16-24.64-23.22-34.83-.57-1.43.52-3.56,0-5.16-.46-1.41-4.04-2.6-2.58-7.74l18.06-12.9-2.58-9.03c-4.63-3.35-19.88,11.22-20.64,10.32l-23.22-50.32,10.32-10.32c-.63-3.56-4.34-13.03-9.03-11.61l-10.32,5.16c-1.62-2.5-4.25-3.58-6.45-5.16-2.88-10.51-7.82-11.39-12.9-18.06-.52-.68-4.02-6-5.16-7.74-.74-1.12-.34-7-5.16-9.03l12.9-12.9-2.58-11.61c-7.23-.64-13.87-.02-19.35,5.16l-14.19-1.29,5.16-2.58c-1.45-2.28-7.26-6.06-7.74-7.74-2.18-7.6-3.12-15.56-5.16-23.22-.28-1.05-2.58-1.74-2.58-2.58l18.06-18.06-9.03-11.61c-2.88,4.6-8.45,1.66-12.9,2.58-1.1.23-9.36,4.99-10.32,5.16-3.86.69-9.55-.92-12.9,0-1.24.34-10.87,10.44-14.19,11.61l2.58,2.58-9.03-1.29c-7.31,6.97-16.65,6.1-25.8,7.74-1.02.18-2.3,4-6.45,2.58l2.58,3.87-12.9,12.9,9.03,14.19,21.93-5.16c-1.51,5.76,4.66,7.28,7.74,10.32.63.62.85,1.2,2.58,2.58.14.11-.66,2.67,2.58,2.58,1.57,3.18,7.28,12.51,7.74,14.19.95,3.48-1.78,7.93,2.58,10.32v2.58c-3.06,2.17-6.16,7.43-9.03,9.03-1.22.68-3.39-.48-3.87,0-.33.33.24,6.13-3.87,7.74-1.25.84,1.07,6.1,1.29,6.45,2.85,4.46,9.45,4.95,14.19,3.87.97-.22,1.52-2.23,2.58-2.58,7.52-2.45,16.02-4.8,23.22-10.32,2.48,1.62,5.65,6.88,7.74,7.74,1.31.54,3.06-.4,3.87,0,1.4,1.76,2.45,2.43,2.58,2.58,1.3,1.56,2.32,2.28,2.58,2.58,1.22,1.41,2.19,2.14,2.58,2.58,2.2,2.45,12.65,13.27,12.9,14.19.58,2.09-.39,5.3,0,7.74l-21.93,16.77-11.61-24.51-7.74-7.74,15.48,28.38v5.16c-8.57,8.07-16,12.84-3.87,21.93l15.48-5.16,7.74,7.74-3.87-12.9,21.93-10.32,6.45,11.61v6.45c.31.37,1.72-.28,2.58,0-.21-2.94.47-6.35,0-9.03-.16-.9-4.54-4.29-2.58-9.03h3.87l1.29-5.16c3.73.4,6.48,6.69,9.03,7.74,1.21.5,2.8-.32,3.87,0,.35.42-.89,1.52,2.58,2.58,6.89,8.22,14.15,15.83,21.93,23.22,2.45,1.39-1.34,4.4-2.58,5.16-.44.27-5.58,2.52-6.45,1.29l-12.9-6.45-2.58,14.19,2.58,3.87-10.32,2.58c-.34-2.89.53-6.38,0-9.03-1.24-6.15-6.68-14.09-5.16-21.93-.31-.37-1.72.28-2.58,0,.74,10.34,3.82,16.27,5.16,24.51.58,3.54-.38,7.89,0,11.61-3.56.07-6.79.95-9.03-2.58-2.42-3.82-5.32-7.7-6.45-11.61l-15.48-12.9,23.22,28.38-18.06,15.48,6.45,9.03,23.22-15.48-1.29,6.45,7.74,7.74,2.58,16.77c7.32-.67-1.76-10.87,0-12.9,1.8.4,3.61,1.66,5.16,2.58,1.64,3.32,2.47,2.44,2.58,2.58,1.33,1.72,1.55,1.67,2.58,2.58.41.36,1.31,1.44,2.58,2.58,3.53,7.15,2.5,7.22,10.32,12.9.73,2.71.34,4.8,2.58,7.74l-15.48,5.16-2.58-11.61-5.16-9.03,2.58,16.77,2.58,6.45-18.06,9.03,6.45,9.03,16.77-5.16v6.45l5.16,6.45-5.16-14.19,21.93-11.61,16.77,20.64c1.56-5.85-4.4-8.94,0-11.61-4.95-3.52-2.22-7.47,2.58-9.03v54.19l-21.93,7.74-3.87-9.03-5.16-9.03,5.16,20.64c-10.04-.02-17.75,4.08-15.48,15.48,8.37,1.6,14.09-3.09,21.93-2.58,3.15-2.73,16.95-10.09,19.35-7.74l2.58,10.32v-12.9l2.58,5.16c4.33-.63,10.33.93,14.19,0,5.91-1.43,1.18-6.35,1.29-9.03l5.16-1.29,20.64,45.16v9.03h-15.48v-5.16h-7.74l-5.16-7.74c-1.21,4.18,4.7,6.22,0,9.03-2.84,1.7-4.97,1.1-5.16,1.29-.48.49.69,2.67,0,3.87-2.81,4.93-7.72,4.02-12.9,3.87v-33.54c-4.51-.6-2.52,5.89-2.58,9.03-.15,7.31.1,14.65,0,21.93l-5.16-6.45v-7.74l-7.74-14.19c-.88,4.47,1.33,7.64,2.58,11.61.9,2.86,4.65,10.43,5.16,12.9.54,2.63-.34,6.15,0,9.03l-20.64,2.58v11.61c1.39.88,2.82,3.57,3.87,3.87,6.01,1.68,9.07-2.38,10.32-2.58,3.55-.57,7.88.38,11.61,0v10.32l5.16-5.16,5.16,15.48-5.16-20.64c4.7.63,6.79-3.98,11.61-2.58,1.44.42,3.72,4.75,5.16,5.16,2.53.73,5.62-1.29,7.74,2.58,3.09-3.42,7.45-5.41,6.45-10.32l18.06-2.58-2.58,28.38,2.58-14.19,5.16-3.87,2.58,24.51,2.58,11.61-12.9-2.58-2.58-10.32c2.72,12.42-7.57,6.72-15.48,7.74-.12,3.84.19,7.75,0,11.61-.16,3.21,1.99,9.61-2.58,9.03v-20.64h-15.48v-3.87l-5.16-6.45,2.58,12.9h-12.9c-.07-2.98.11-6.02,0-9.03-.12-3.19,1.96-9.62-2.58-9.03v20.64c-12.25,1.15-20.28,15.02-33.54,12.9v5.16l-10.32,2.58,1.29,10.32-11.61-5.16v5.16c-4.25,1.37-4.96-2.06-6.45-2.58-1.59-.56-7.31-2.5-7.74-2.58-4.23-.75-9.7.51-14.19,0v165.14H0ZM129.01,190.94l3.87,7.74,1.29-1.29-2.58-6.45h-2.58ZM199.97,239.97l-1.29,1.29,3.87,3.87,1.29-1.29-3.87-3.87ZM207.71,252.87l-1.29,1.29,3.87,3.87,1.29-1.29-3.87-3.87ZM212.87,260.61c-1.68,0-1.68,2.58,0,2.58s1.68-2.58,0-2.58ZM237.39,399.95l-2.58-12.9h-2.58l2.58,12.9h2.58ZM285.12,436.07c-1.68,0-1.68,2.58,0,2.58s1.68-2.58,0-2.58ZM252.87,446.39v-5.16h-2.58v5.16h2.58Z"/>
      <path d="M219.32,322.54c-3.13-6.36-5.04-7.07-7.74-11.61-.46-.78.33-3.86-2.58-5.16v-5.16l12.9-6.45v5.16l15.48-5.16-2.58-9.03,11.61-6.45c2.26,3.1,7.27,6.06,9.03,9.03,4.31,7.25,2.18,21.2,7.74,28.38l2.58,21.93-5.16-5.16h-10.32l-2.58-5.16v10.32h-5.16l2.58,10.32c-.39.47-6.32-4.13-7.74-5.16-.3-1.12.48-2.68,0-3.87-1.26-3.14-7.77-6.74-10.32-9.03-1.64-3.32-2.47-2.44-2.58-2.58-1.19-1.55-1.21-1.48-2.58-2.58-.14-.11.36-.83-2.58-2.58ZM236.1,301.89c-1.68,0-1.68,2.58,0,2.58s1.68-2.58,0-2.58ZM241.26,312.22c-1.68,0-1.68,2.58,0,2.58s1.68-2.58,0-2.58Z"/>
      <path d="M211.58,239.97c-3.97-4.74-9.02-9.04-7.74-15.48,4.88,1.32,5.86-2.95,9.03-5.16.6-.42,2.04.39,2.58,0,2.73-2.01,5.01-5.51,7.74-7.74l11.61,21.93,12.9,29.67-7.74,1.29c-6.12-3.88-17.09-19.94-21.93-21.93-1.21-.5-2.8.33-3.87,0-.35-.42.89-1.53-2.58-2.58Z"/>
      <path d="M291.57,340.6l7.74,16.77c1.18,11.29,8.19,23.15,10.32,33.54.54,2.63-.34,6.15,0,9.03l-21.93,5.16-16.77-21.93v-34.83l20.64-7.74Z"/>
      <path d="M308.34,727.64c-.99-.16-1.72-2.58-2.58-2.58-.54,0-2.54,4-6.45,2.58,1.42-4.14-2.4-5.44-2.58-6.45-.67-3.81-.78-19.74,0-23.22.21-.92,2.07-1.46,2.58-2.58.36-.8-.33-2.02,0-2.58,1.29-2.17,4.78-4.18,6.45-6.45,2.7-.82,4.98,2.02,6.45,3.87s4.33,5.84,5.16,7.74c.62,1.41,5.01,12.19,5.16,12.9.72,3.31-.47,7.97,0,11.61,7.17,1.02,4.78-1.07,5.16-6.45.62-8.76,4.89-.53,10.32-1.29v5.16h3.87l6.45,7.74c-12.3-1.42-28.28,1.95-39.99,0ZM312.22,725.06v-5.16h-2.58v5.16h2.58Z"/>
      <path d="M314.8,412.85c.37,3.73-.56,8.05,0,11.61.15.98,2.48,1.64,2.58,2.58,1.07,9.81-.89,21.01,0,30.96.36,4.03,4.02,6.55,2.58,11.61l-7.74-14.19v-5.16l-15.48-28.38,3.87-6.45,14.19-2.58Z"/>
      <polygon points="348.34 634.75 348.34 632.17 350.92 633.46 348.34 634.75"/>
      <path d="M348.34,632.17c-.09.12-2.58-.35-2.58,1.29.44,1.71,2.52,1.16,2.58,1.29,1.18,2.62.12,15.2-3.87,15.48l-1.29-10.32-10.32,7.74,1.29-7.74h5.16c7.89-4.85.32-11.26-5.16-15.48-3.35-2.58-4.39-3.33-9.03-2.58-.65-4.27,3.48-2.48,6.45-2.58,5.83-.19,13.62,1.88,18.06-2.58l-1.29,6.45,2.58,5.16c-1.86.62-2.2,3.36-2.58,3.87Z"/>
      <path d="M232.23,719.9c-.12.09.45,2.18-1.29,2.58-7.36,1.68-12.46-.65-16.77-6.45l-2.58-11.61,2.58,7.74c8.25-5.7,15.93-5.73,25.8-5.16l-2.58,9.03c-.6,1.78-2.49,1.18-2.58,1.29l-1.29-2.58c-1.66,0-1.16,2.52-1.29,2.58-1.51.67-5.43-.4-7.74,0v2.58h7.74ZM229.65,714.74l-5.16-5.16v5.16h5.16Z"/>
      <path d="M232.23,719.9v-2.58h2.58c-1.15,1.52-1.04,1.42-2.58,2.58Z"/>
      <path d="M185.78,647.65c4.5-.6,2.52,5.88,2.58,9.03.25,12.24-1.83,30.27,0,41.28.16.99,2.58,1.72,2.58,2.58s-2.42,1.59-2.58,2.58c-.73,4.39.1,10.61,0,15.48-.06,3.15,1.93,9.63-2.58,9.03v-79.99Z"/>
      <path d="M319.96,632.17v12.9l7.74-5.16-2.58,12.9-10.32-6.45c1.22-4.7-4.09-16.15,5.16-14.19Z"/>
      <polygon points="366.4 719.9 363.82 727.64 350.92 721.19 359.95 717.32 366.4 719.9"/>
      <polygon points="281.25 655.39 282.54 647.65 285.12 645.07 294.15 646.36 281.25 655.39"/>
      <rect x="318.05" y="684.45" width="8.98" height="8.98" transform="translate(-433.04 777.06) rotate(-71.57)"/>
      <rect x="314.8" y="621.85" width="7.74" height="2.58"/>
      <rect x="250.29" y="273.51" width="2.58" height="5.16"/>
      <rect x="234.81" y="562.5" width="2.58" height="5.16"/>
      <rect x="270.93" y="397.36" width="2.58" height="5.16"/>
      <path d="M272.22,389.62c1.68,0,1.68,2.58,0,2.58s-1.68-2.58,0-2.58Z"/>
      <path d="M277.38,397.36c1.68,0,1.68,2.58,0,2.58s-1.68-2.58,0-2.58Z"/>
      <path d="M225.78,683.78c1.68,0,1.68,2.58,0,2.58s-1.68-2.58,0-2.58Z"/>
      <path d="M267.06,350.92c1.68,0,1.68,2.58,0,2.58s-1.68-2.58,0-2.58Z"/>
      <path d="M259.32,363.82c1.68,0,1.68,2.58,0,2.58s-1.68-2.58,0-2.58Z"/>
      <path class="cls-1" d="M237.39,639.91c-1.9,4.87,4.55,6.81,5.16,9.03.96,3.47-1.79,7.94,2.58,10.32l-5.16,3.87-1.29-7.74h-7.74l-3.87,3.87,2.58,6.45,10.32,1.29-15.48,6.45c-.63-4.7,3.98-6.79,2.58-11.61-.66-2.29-5.11-4.69-7.74-3.87l-2.58,5.16v-12.9h-5.16c-2.11-2.11,7.01-12.34,9.03-12.9,6.28-1.73,10.62,3.74,16.77,2.58Z"/>
      <path class="cls-1" d="M232.23,596.05l5.16,11.61c-5.41,8.15-17.42,10.46-18.06-1.29,5.42,3.61,3.2,1.55,6.45,0,2.14-1.02,6.17-.83,6.45-5.16l-12.9-3.87,12.9-1.29Z"/>
      <path class="cls-1" d="M207.71,655.39c1.68,0,1.68,2.58,0,2.58s-1.68-2.58,0-2.58Z"/>
      <path class="cls-1" d="M236.1,301.89c1.68,0,1.68,2.58,0,2.58s-1.68-2.58,0-2.58Z"/>
      <path class="cls-1" d="M241.26,312.22c1.68,0,1.68,2.58,0,2.58s-1.68-2.58,0-2.58Z"/>
      <rect class="cls-1" x="309.63" y="719.9" width="2.58" height="5.16"/>
      <rect class="cls-1" x="200.35" y="239.81" width="1.82" height="5.47" transform="translate(-112.56 213.35) rotate(-45)"/>
      <rect class="cls-1" x="208.09" y="252.71" width="1.82" height="5.47" transform="translate(-119.41 222.61) rotate(-45)"/>
      <path class="cls-1" d="M212.87,260.61c1.68,0,1.68,2.58,0,2.58s-1.68-2.58,0-2.58Z"/>
      <rect class="cls-1" x="166.81" y="183.04" width="1.82" height="5.47" transform="translate(-82.24 173.01) rotate(-45)"/>
      <path class="cls-1" d="M171.59,190.94c1.68,0,1.68,2.58,0,2.58s-1.68-2.58,0-2.58Z"/>
      <path class="cls-1" d="M174.17,196.1c1.68,0,1.68,2.58,0,2.58s-1.68-2.58,0-2.58Z"/>
      <polygon class="cls-1" points="229.65 714.74 224.49 714.74 224.49 709.58 229.65 714.74"/>
    </g>
  </g>
</svg>