<?xml version="1.0" encoding="UTF-8"?>
<svg id="Layer_2" data-name="Layer 2" xmlns="http://www.w3.org/2000/svg" viewBox="0 0 558 328">
  <defs>
    <style>
      .cls-1 {
        fill: #fff;
      }
    </style>
  </defs>
  <g id="Layer_1-2" data-name="Layer 1">
    <g>
      <path d="M0,249V0h558v328H192c-.27-5.9-5.49-.67-5.95-1.02-.12-.09-.12-1.65-1.11-2.38-3.22-2.37-8.71-2.66-10.67-3.88-.8-.5-.85-2.5-3.2-3.29-2.64-.89-5.33.1-7.38-.4-.9-.22-.91-2.09-2.37-2.81-2.19-1.09-6.79-.64-8.1-1.44-.65-.4-.82-2.6-2.19-3.29-1.77-.89-4.11-.11-6.02-.98-1.17-.53-1.98-2.56-2.96-2.97-1.13-.47-3.31.93-5.34.32-2.99-.9-15.95-7.03-19.19-8.91-1.54-.89-3.95-3.87-4.23-3.93-1.75-.37-6.66.47-7.24-.13-.36-.37.25-2.43-.12-2.78-.24-.24-4.91-.22-6.77-.78-1.98-.6-15.89-5.95-16.89-6.62-.65-.43-.69-2.16-1.89-2.56-1.82-.61-4.06.27-5.7-.11-1.03-.24-.92-2.41-2.3-2.89-2.04-.71-5.14.15-7.38-.16-.48-1.52,3.82-.66,1.99-2.98-.25-.31-4.52-1.11-5.5-1.11-1.93,0-5.11,1.84-6.04.11-.42-.79,1.35-3.11-1.1-3.87-2.14-.67-5.1.29-7.63-.37-5.24-1.36-6.94-6.58-14.12-6.8-.43-.01-3.45-3.66-7.3-3.77-1.36-.04-2.25,1.54-2.82,1.57-.45.02-4.77-4.59-7.1-5.65-3.01-1.37-5.93-1.26-8.61-2.2-.81-.28-3.69-3.55-6.78-2.91ZM248.75,80.74l-48.5,12-7.52.03c-47.76-20.35-95.61-40.37-143.42-60.57-2.83-1.2-7.45-5.99-10.28-2.7l137.96,60c-1.81,4.3-7.63-.37-8.85,3.17l-29.95,158.12c-.77,3.63,3.85,3.69,6.08,5.18,8.01,5.34,12.84,6.8,21.41,10.85,27.25,12.88,54.74,26.74,82.87,37.13,3.47,1.28,5.97,3.87,9.44,4.05l32.49-162.02,6.51-1.98-.99,6.99c4.93.97,8.85-3.08,13.49-3.09,5.46-.02,7.6,5.3,13.94,3.08,4.05-1.42,6.12-7.18-.96-3.99-1.76.79-2.32,3.37-5.47.52,2.76-4.09,6.89-3.02,10.84-4.16,4.92-1.42,38.51-11.62,40.05-10.23.18.16,1.72,4.15,1.72,4.39,0,.59-1.28,1.86-1.52,3.08-.81,4.1-1.67,8.23-2.14,12.38l-5.96.04c1.36-2.97,2.95-6.74,1.5-9.99-3.65,4.63-.79,7.24-8.5,6,.33,2.66,5.37-.91,4.95,2.43-.64,5.06-.93,4-4.84,5.15-.78.23-1.45,1.4-1.62,1.39-1.27,0-.98-4.78-3.49-4l2.01-2.97c1.04-.64,4.77,7.83,5.97,2.5-1.68-.54-5.06-5.41-5.44-5.4-2.23.01-4.42,1.42-3.56,3.89-2.05.14-1.06-4.1-2.49-3.98-.25.02-1.09,1.51-2.13,1.71-1.38.25-5.53-2.11-5.4,1.77.06,1.73,4.14,4.07,0,6.03-3.18,1.5-5.3-1.29-8.08-1.01-2.34.23-11.93,2.63-11.9,5.49-2.16.22-.4-4.28-1-4.99-3.03.4-2.44,3.66-4.99,3l-1-4-.02,6-1.98-1.01-1.98,8.54c-5.94,1.42-11.82,3.76-18.04,3.47,1.87,4.33-1.4,8.37-1.95,11.54-.86,4.91-.3,9.22-2.12,14.69-2.1,6.3-.92,7.28-1.98,13.21-3.72,20.8-8.86,42.3-13.69,62.32-1.44,5.97-1.42,9.25-2.37,15.63-.43,2.94-1.25,8.27-1.9,10.93-.21.86-5.82,1.43,2.5,4.66,2.31-2.05,11.35-2.85,12.61-4.64.99-1.4-.33-3.56-.05-4.78.37-1.6,1.53-2.61,1.85-4.17,1.39-6.78,2.3-13.84,3.29-20.71l1.24-1.76,33.09-10.92c3.51-.46-.78,6.01,3.46,4.99-.22-8.18,2.72-5.73,7.27-7.24,1.01-.33,12.85-5.87,12.75-3.25-1.42,6.46-3.12,12.83-4.78,19.22-.46,1.76.07,3.82-.45,5.55-.61,2.02-4.29,3.86-3.78,6.71l8.83-2.16c4.06-19.58,8.65-39.18,12.15-58.82l-2.97-2.01,3.99.99c1.83-7.67-.06-15.01-3.5-21.99l-2.61,19.43c-3.31,8.25-2.41,15.47-5.43,23.53-.6,1.61-.09,4.73-1.4,5.59-1.7,1.11-10.64,1.93-13.3,2.7-12.55,3.69-24.76,7.75-37.29,11.71-1.67.53-5.85,3.79-5.43.59,2.28-17.48,7.96-35.94,11.16-53.37,17.72-3.94,34.78-9.88,52.29-14.16,3.38-.75,3.17-4.64-1.92-4.01-2.9.36-6.2,3.46-9.34,3.81-2.21.25-3.46-.86-4.65-.85-.61,0-.55,1.63-1.33,1.95-2.62,1.05-10.32,3.73-12.78,4.05-3.51.45.79-6-3.46-4.98.91,9.07-1.76,5.88-7.27,7.23-1.67.41-10.31,4.2-10.73,3.76l4.48-25.01c1.5-3.08,17.47-4.1,21.15-6.69,2.38.48,4.13,1.06,6.36-.29.82.93-3.8,8,3,6.99-3.72-7.89,5.39-11.78,11.76-12.79,2.53-.4,6.81.91,7.09.69.46-.36.42-2.42,1.75-2.83,1.09-.33,6.94,1.24,7.39,2.44-.82.96-2.04.58-2.81,2.16-.85,1.74-3.06,12.86-3.11,14.98-.12,4.38,1.93,9.14,2.94,13.34,1.4.24,1.46-1.78,1.7-2.77.8-3.33,4.25-25.38,5.35-26.18l2.18.15,165.75,69.8c-.16-6.81-1.85-3.84-3.98-4.62-17.97-6.59-36.5-16.22-54.13-23.76-26.23-11.23-52.84-22.17-79.37-33.63-4.48-1.93-10.74-2.24-13.52-6.97,2.01-.12,6.82,2.77,7.99,0-3.45,1.57-6.3-2.91-6.69-2.99-5.95-1.31-8.14.08-14.13-2.9-2.07-1.03-12.48-5.43-12.98-6.28s-.13-1.91-.2-2.83l11.99,2.99c-1.59-2.45,1-4.05,1-5.48,0-1.59-2.28-2.54-1.87-4.76.55-2.94,1.42-6.95,2.1-10.02,1.18-5.33,3.92-11.45,4.65-17.15.51-.73,8.32-.62,6.12-3.57-.27-.36-8-2.88-8.45-2.9-.86-.04-7.82,1.06-8.54,1.39-4.24,1.92,1.4,6.98-.01,10.5-8.95,1.03-1.19-5.73-5.59-8.91l-86.11-35.89c-1.81-.39-3.18-3.26-4.3-3.77-.52-.24-6.32,3.47-8.99.56l-1.51,4-3.5-8.99,8.06,3.56c1.95-2.45,12.5-3.8,6.64-6.78-1.27-.65-6.17-2.7-7.26-2.76-.73-.04-7.97.86-8.32,1.09-.47.31-2.15,8.45-3.38,9.62ZM322.99,209c-.63-.58-3.67.26-3.99,1.53l2.01,7.47,4.99-2.52c.32-1.33-1.78-2.53-2.45-3.59-.61-.97-.45-2.8-.56-2.9ZM318,243.01l-6.98,3.49c.82,1.49,2.67,1.07,3.68,1.81.75.56,1.05,2.48,1.81,2.69,4.49,1.21.75-4.33.65-4.75-.36-1.4,1.1-2.99.84-3.24Z"/>
      <path class="cls-1" d="M0,249c3.09-.63,5.97,2.63,6.78,2.91,2.68.94,5.6.83,8.61,2.2,2.33,1.06,6.64,5.67,7.1,5.65.58-.02,1.46-1.61,2.82-1.57,3.85.11,6.87,3.76,7.3,3.77,7.18.22,8.88,5.44,14.12,6.8,2.54.66,5.49-.3,7.63.37,2.45.77.68,3.08,1.1,3.87.93,1.73,4.11-.11,6.04-.11.98,0,5.25.79,5.5,1.11,1.83,2.32-2.47,1.46-1.99,2.98,2.24.3,5.34-.55,7.38.16,1.38.48,1.27,2.64,2.3,2.89,1.64.39,3.88-.5,5.7.11,1.2.4,1.24,2.13,1.89,2.56,1,.67,14.91,6.02,16.89,6.62,1.86.56,6.53.54,6.77.78.37.36-.24,2.42.12,2.78.58.6,5.49-.24,7.24.13.28.06,2.69,3.04,4.23,3.93,3.24,1.88,16.2,8,19.19,8.91,2.02.61,4.21-.8,5.34-.32.98.41,1.78,2.44,2.96,2.97,1.91.87,4.25.1,6.02.98,1.38.69,1.54,2.89,2.19,3.29,1.31.8,5.91.35,8.1,1.44,1.46.73,1.47,2.59,2.37,2.81,2.05.5,4.74-.48,7.38.4,2.35.79,2.4,2.79,3.2,3.29,1.97,1.22,7.45,1.52,10.67,3.88.99.73.99,2.29,1.11,2.38.45.35,5.68-4.87,5.95,1.02H0v-79Z"/>
      <path class="cls-1" d="M248.75,80.74c1.23-1.17,2.91-9.31,3.38-9.62.35-.23,7.59-1.14,8.32-1.09,1.09.06,5.98,2.11,7.26,2.76,5.85,2.98-4.69,4.33-6.64,6.78l-8.06-3.56,3.5,8.99,1.51-4c2.67,2.91,8.47-.8,8.99-.56,1.12.52,2.49,3.38,4.3,3.77l86.11,35.89c4.4,3.18-3.36,9.94,5.59,8.91,1.41-3.52-4.23-8.57.01-10.5.72-.33,7.68-1.44,8.54-1.39.45.02,8.18,2.54,8.45,2.9,2.21,2.95-5.6,2.84-6.12,3.57-.73,5.7-3.47,11.82-4.65,17.15-.68,3.07-1.56,7.08-2.1,10.02-.41,2.22,1.87,3.17,1.87,4.76,0,1.44-2.59,3.03-1,5.48l-11.99-2.99c.07.92-.3,1.98.2,2.83s10.91,5.25,12.98,6.28c5.99,2.99,8.18,1.59,14.13,2.9.38.08,3.24,4.56,6.69,2.99-1.17,2.77-5.99-.12-7.99,0,2.78,4.74,9.04,5.04,13.52,6.97,26.54,11.46,53.15,22.4,79.37,33.63,17.62,7.54,36.16,17.17,54.13,23.76,2.13.78,3.82-2.19,3.98,4.62l-165.75-69.8-2.18-.15c-1.1.8-4.55,22.85-5.35,26.18-.24.99-.3,3.01-1.7,2.77-1.01-4.2-3.06-8.96-2.94-13.34.06-2.13,2.27-13.24,3.11-14.98.77-1.58,1.98-1.2,2.81-2.16-.46-1.19-6.3-2.77-7.39-2.44-1.33.41-1.29,2.47-1.75,2.83-.28.22-4.57-1.09-7.09-.69-6.37,1-15.48,4.9-11.76,12.79-6.8,1.01-2.19-6.06-3-6.99-2.23,1.35-3.98.78-6.36.29-3.68,2.58-19.65,3.61-21.15,6.69l-4.48,25.01c.42.44,9.06-3.36,10.73-3.76,5.52-1.35,8.18,1.84,7.27-7.23,4.25-1.02-.05,5.44,3.46,4.98,2.47-.32,10.17-3,12.78-4.05.79-.32.72-1.94,1.33-1.95,1.19-.01,2.45,1.1,4.65.85,3.13-.35,6.44-3.46,9.34-3.81,5.09-.63,5.3,3.26,1.92,4.01-17.52,4.28-34.58,10.22-52.29,14.16-3.19,17.43-8.88,35.89-11.16,53.37-.42,3.2,3.76-.06,5.43-.59,12.53-3.96,24.74-8.03,37.29-11.71,2.66-.78,11.6-1.59,13.3-2.7,1.32-.86.8-3.98,1.4-5.59,3.02-8.05,2.12-15.28,5.43-23.53l2.61-19.43c3.44,6.98,5.33,14.32,3.5,21.99l-3.99-.99,2.97,2.01c-3.5,19.64-8.08,39.24-12.15,58.82l-8.83,2.16c-.51-2.84,3.18-4.68,3.78-6.71.52-1.73-.01-3.79.45-5.55,1.66-6.39,3.36-12.77,4.78-19.22.1-2.62-11.74,2.92-12.75,3.25-4.55,1.51-7.49-.94-7.27,7.24-4.25,1.02.05-5.45-3.46-4.99l-33.09,10.92-1.24,1.76c-.98,6.86-1.9,13.93-3.29,20.71-.32,1.56-1.48,2.57-1.85,4.17-.28,1.22,1.04,3.37.05,4.78-1.26,1.79-10.3,2.59-12.61,4.64-8.32-3.23-2.71-3.81-2.5-4.66.64-2.66,1.46-7.99,1.9-10.93.94-6.38.93-9.66,2.37-15.63,4.82-20.03,9.97-41.53,13.69-62.32,1.06-5.93-.12-6.91,1.98-13.21,1.82-5.47,1.26-9.78,2.12-14.69.56-3.17,3.82-7.21,1.95-11.54,6.22.29,12.1-2.05,18.04-3.47l1.98-8.54,1.98,1.01.02-6,1,4c2.55.66,1.96-2.6,4.99-3,.6.71-1.16,5.22,1,4.99-.03-2.85,9.56-5.25,11.9-5.49,2.78-.28,4.9,2.52,8.08,1.01,4.14-1.95.06-4.29,0-6.03-.14-3.88,4.02-1.52,5.4-1.77,1.05-.19,1.88-1.69,2.13-1.71,1.43-.12.43,4.13,2.49,3.98-.86-2.47,1.33-3.88,3.56-3.89.38,0,3.76,4.86,5.44,5.4-1.2,5.33-4.93-3.14-5.97-2.5l-2.01,2.97c2.51-.78,2.22,3.99,3.49,4,.17,0,.84-1.17,1.62-1.39,3.91-1.15,4.2-.09,4.84-5.15.42-3.34-4.62.24-4.95-2.43,7.71,1.23,4.85-1.37,8.5-6,1.45,3.24-.14,7.01-1.5,9.99l5.96-.04c.47-4.15,1.33-8.28,2.14-12.38.24-1.21,1.52-2.49,1.52-3.08,0-.24-1.54-4.23-1.72-4.39-1.54-1.39-35.13,8.81-40.05,10.23-3.95,1.14-8.07.07-10.84,4.16,3.15,2.85,3.7.27,5.47-.52,7.08-3.18,5.02,2.57.96,3.99-6.34,2.22-8.48-3.09-13.94-3.08-4.65.01-8.56,4.06-13.49,3.09l.99-6.99-6.51,1.98-32.49,162.02c-3.47-.19-5.97-2.77-9.44-4.05-28.13-10.38-55.62-24.25-82.87-37.13-8.57-4.05-13.4-5.51-21.41-10.85-2.23-1.48-6.84-1.55-6.08-5.18l29.95-158.12c1.22-3.54,7.03,1.13,8.85-3.17L39.02,29.5c2.84-3.3,7.45,1.5,10.28,2.7,47.81,20.2,95.66,40.22,143.42,60.57l7.52-.03,48.5-12ZM184,98.01c-8.32-.37-7.92,9.34,0,8.99.18-3.19-1.25-5.89,0-8.99ZM187.26,118.72c-1.37-.89-1.51-4.23-6.23-2.68l-2.08,14.3,14.51,6.67c1.19-.66,1.03-1.28,1.25-2.27.58-2.6,2.59-9.23,2.13-11.01-1.17-4.48-7.6-3.71-9.59-5.01ZM240.72,141.26l-31.4-14.12c-1.48-.64-2.72,2.82-3,3.66-.67,2.02-2.18,10.96-1.2,12.08,4.09.42,7.23,3.17,10.9,4.59,2.52.97,5.48,1.04,7.96,2.04,4.37,1.75,11.12,6.33,14.65,7.37,1.89.55,1.13-.25,1.58-1.16,1.58-3.14,3.17-12.06.51-14.46ZM184,153c2.57-.85,4.14,4.97,5.5,4.98,2.74.04.76-6.24.61-7.62-.12-1.12.88-2.83.46-3.43s-9.96-4.55-10.57-3.93c-1.73,6.19,3.76,2.73,4.99,5.51.82,1.87-1.67,1.15-2.31,2.69s-.78,3.16-.67,4.79l2-3ZM278,146.01c-7.05.37-6.25,13.51-7.22,19.27-.27,1.59-3.38,4.5-.27,5.71,1.77.69,2.38.53,2.47-1.49.37-7.69,3.3-15.93,5.01-23.5ZM262,167c-1.01-3.87,3.81-11.01,2.9-14.35-.29-1.07-9.62-5.55-10.43-5.43-2.3.33-3.88,12.14-4.39,14.68l11.93,5.09ZM205,153.98c.99-1.27-7.27-3.67-8.49-3.99-1.21.03.83,4.93-2.51,4.03,2.58,3.8,4.22-1.12,4.49-1.01,3.3,1.34-.46,7.21-.88,9.89-.48,3.14-.03,7.81-.62,10.45-.14.62-4.89,1.44.51,5.65.89-2.77.28-6.05,3.03-8l4.46,2c2.25-5.53-1.91-4.73-2.89-6.16-.34-.5.64-2.09.53-3.13-.37-3.54-2.58-9.23,2.37-9.73ZM352,164c-2.81,1.2-6.6-2.01-8.34-1.81-1.25.14-4.31,2.6-6.64,3.33-6.18,1.93-12.95,2.03-18.75,5.25l-13.1,2.39-1.16,5.84,42.01-10.47c.62-.69,8.07-2.8,5.98-4.52ZM228.99,187.99c1.27-4.56,1.34-9.75,2.26-14.25,1.16-5.65,6.56-9.82-4.24-9.74-.34,2.04,2.81.12,3.06,1.54,1.03,5.83-1.66,12.19-2.1,17.92-.08,1.05-.69,4.72,1.02,4.53ZM177,173c-.11-.11-2.91-.14-2.99-.01-.42.65-1.81,12.89-2.26,15.25-.58,3.06-2.93,6.09-1.8,10.15,3.01.69,14,7.3,16.06,5.6-2.82-1.68-4.47-12.54-5.01-12.99-3.13-2.57-1.07,7.44-2,8-2.57-.41-1.44-4.1-2.19-4.86-.64-.65-2.46.93-3.34-2.06-.99-3.35.51-10.87,1.6-14.35.09-.27,3.91-2.75,1.94-4.73ZM215,184.99c5.36,1.37,8.18-6.02,3.48-6.99-3.94-.81-1.36,5.62-1.59,5.89-.41.48-2.32-.61-1.89,1.09ZM198,183.01c-6.28-.75-3.34,6.56-4.03,10.45-.37,2.08-2.29,3.26-2.76,5.24-.66,2.77.08,6.32-1.19,9.3,6.1-.65,3.33-7.46,4.04-11.45.26-1.48,1.61-2.55,1.88-4.12.37-2.24-.16-6.73.1-7.81.29-1.19,2.4.09,1.97-1.6ZM227.99,195c-.52-.56-3.3-.11-3.84,1.65-.77,2.48.27,6.03-.21,8.79-.79,4.53-9.4,18.34.05,16.54-2.5-3.53.53-5.53.94-8.55.44-3.18-.06-8.29.36-10.81.29-1.73,4.27-5.94,2.7-7.62ZM171,201.01c-2.79-.49-1.67.6-2.25,2.19-1.86,5.14-2.18,11.35-2.74,16.8l3.71-10.79c-.59-3.14.64-5.25,1.27-8.19ZM214,206.01c-1.07-.72-4.75,1.13-6.45.97s-4.26-2.29-6.03-3.02c-1-.41-2.39-1.52-2.49.53-.06,1.24,4.85,9.83,6.49,10.5,3.63,1.5-.35-3.39-.41-3.63-.89-4,7.87-2.07,9.89-.35l-1.99,1c2.44,4.65,2.61-.52,5.81-.14l.18-3.87-2.97,2.98c.37-1.96-1.89-2.14-2.41-2.98-.47-.76.47-1.94.39-2ZM189,237c.29-.3-.18-6.65.09-8.41.8-5.4,5.85-13.6,2.41-18.57l-3.26,8.72c-.48,2.83,0,5.68-.49,8.51-.34,1.98-2.82,7.81-2.75,8.24.23,1.24,3.46,2.08,4,1.52ZM242.01,231.99c3.09,2.8,2.94-6.62,3.1-7.39.68-3.37,3.39-7.94.39-10.6-1.22,1.62-.04,4.41-.51,6.32-.19.77-1.89.61-2.03,1.33-.42,2.24,1.78,5.69,1.03,8.34-1.87.49-.15-3.02-1.99-1.5-1.13.93-.15,3.35,0,3.5ZM210.99,219c-3.19-.55-4.02,1-4,4l-3.98-3-1,6c2.66-.68,6.66-.6,9.33.01.68.15.99,3.86,2.66,1.99.45-.5-3.48-7.06-3.01-8.99ZM233.78,223.21c-.93-1.7-6.54-2.34-7.78-1.2-2.28,2.07,6.86,4.44,7.52,4.98.95-.42.65-3.06.26-3.77ZM223,225.01l-3.01.66-3.98,23.33,3.86-3.61c-.36-7.1,2.01-13.45,3.13-20.38ZM241.75,233.25l-12.74-5.25,2.01,6.99,5.97-1.99,4.52,11.99c.07-2.73,2.17-9.82.24-11.74ZM184.41,264.64c-3.59-6.19,5.2-16.18-.4-21.63-1.73,4.73-1.08,10.8-2.07,15.43-.42,1.95-2.8,4.58-2.63,6.09.21,1.88,10.36,5.77,12.69,4.98-1.96-2.95-5.86-1.89-7.58-4.87ZM197,247.01c-4.93-.94-4.61,5.49-4.99,8.99,6.36-.2,3.8-4.96,4.99-8.99ZM216.22,257.19c.67-1.13,6.12-1.62-1.22-4.19.18,2.05-.14,6.4-1.98,7.54-2.12,1.31-2.97-2.18-5.02-1.54l2.99,8.51-1.01,8.48c-4.58.42-5.62-6.4-8.99,0,6.46.88,10.66,5.57,16.99,7.01v-5.99s-3.99.99-3.99.99c-.46-.54.69-9.2,1.18-10.34.75-1.75,2.88-1.35,2.85-2.18-.06-1.68-3.8-4.95-1.81-8.29ZM227.01,282c.4-1.84-1.02-4.05-.92-5.56.14-2.17,4-3.83-.08-5.44,1.01,3.01-2.79,3.79-3.03,4.7-.66,2.46.53,6.87-.04,9.7l10.05,4.61,1-7-3.98,2c-.61-2.79.74-5.24,3.5-6,1.05-.29-.3,2.47,1.48,1.99v-6.99c-1.58,1.02-4.35.69-5.5,1.99-1.35,1.53-.41,5.47-2.48,6Z"/>
      <path class="cls-1" d="M322.99,209c.11.1-.05,1.92.56,2.9.66,1.05,2.77,2.26,2.45,3.59l-4.99,2.52-2.01-7.47c.32-1.27,3.36-2.11,3.99-1.53Z"/>
      <path class="cls-1" d="M318,243.01c.26.25-1.2,1.84-.84,3.24.11.42,3.84,5.96-.65,4.75-.76-.21-1.06-2.13-1.81-2.69-1.01-.75-2.86-.32-3.68-1.81l6.98-3.49Z"/>
      <path d="M240.72,141.26c2.66,2.4,1.07,11.33-.51,14.46-.46.91.3,1.71-1.58,1.16-3.53-1.04-10.28-5.61-14.65-7.37-2.48-1-5.44-1.07-7.96-2.04-3.68-1.41-6.81-4.16-10.9-4.59-.97-1.12.54-10.06,1.2-12.08.28-.84,1.52-4.3,3-3.66l31.4,14.12ZM211.77,131.3c-4.67-2.49-6.21,9.21-.12,12.57,4.51,2.49,11.57-2.32,10.12-7.12s-6.07-3.08-9.12-3.74c-.75-.16-.71-1.61-.88-1.7ZM239.91,146.08c-3.21-.05-8.42-5.75-8.98-.57-.46,4.26,11.18,8.92,8.98.57Z"/>
      <path d="M187.26,118.72c1.99,1.29,8.42.52,9.59,5.01.46,1.78-1.56,8.41-2.13,11.01-.22.99-.06,1.61-1.25,2.27l-14.51-6.67,2.08-14.3c4.72-1.54,4.86,1.79,6.23,2.68Z"/>
      <path d="M262,167l-11.93-5.09c.51-2.54,2.09-14.36,4.39-14.68.82-.12,10.14,4.36,10.43,5.43.91,3.33-3.91,10.47-2.9,14.35Z"/>
      <path d="M216.22,257.19c-1.99,3.35,1.75,6.61,1.81,8.29.03.82-2.09.43-2.85,2.18-.49,1.14-1.64,9.8-1.18,10.34l3.99-.99v5.99c-6.34-1.43-10.54-6.13-17-7.01,3.37-6.4,4.41.43,8.99,0l1.01-8.48-2.99-8.51c2.05-.64,2.9,2.85,5.02,1.54,1.84-1.14,2.16-5.49,1.98-7.54,7.33,2.56,1.89,3.05,1.22,4.19Z"/>
      <path d="M177,173c1.98,1.98-1.85,4.46-1.94,4.73-1.09,3.48-2.59,11-1.6,14.35.88,2.99,2.7,1.42,3.34,2.06.75.75-.38,4.45,2.19,4.86.93-.56-1.14-10.56,2-8,.54.45,2.2,11.31,5.01,12.99-2.06,1.71-13.05-4.91-16.06-5.6-1.12-4.06,1.22-7.09,1.8-10.15.45-2.36,1.84-14.6,2.26-15.25.08-.13,2.89-.09,2.99.01Z"/>
      <path d="M205,153.98c-4.95.49-2.74,6.18-2.37,9.73.11,1.04-.87,2.63-.53,3.13.98,1.43,5.14.63,2.89,6.16l-4.46-2c-2.74,1.96-2.14,5.23-3.03,8-5.4-4.21-.65-5.04-.51-5.65.59-2.64.14-7.31.62-10.45.41-2.68,4.18-8.55.88-9.89-.27-.11-1.9,4.81-4.49,1.01,3.34.91,1.29-4,2.51-4.03,1.22.33,9.48,2.73,8.49,3.99Z"/>
      <path d="M227.01,282c2.07-.53,1.13-4.47,2.48-6,1.14-1.3,3.92-.97,5.5-1.99v6.99c-1.79.48-.43-2.28-1.48-1.99-2.76.76-4.1,3.2-3.5,6l3.98-2-1,7-10.05-4.61c.57-2.83-.61-7.24.04-9.7.24-.91,4.04-1.68,3.03-4.7,4.08,1.6.21,3.27.08,5.44-.09,1.51,1.32,3.72.92,5.56Z"/>
      <path d="M184,153l-2,3c-.1-1.63.04-3.27.67-4.79s3.13-.82,2.31-2.69c-1.22-2.77-6.71.68-4.99-5.51.61-.61,10.16,3.35,10.57,3.93s-.58,2.31-.46,3.43c.15,1.37,2.13,7.65-.61,7.62-1.36-.02-2.93-5.84-5.5-4.98Z"/>
      <path d="M184.41,264.64c1.72,2.97,5.62,1.91,7.58,4.87-2.33.79-12.48-3.09-12.69-4.98-.17-1.51,2.22-4.14,2.63-6.09.99-4.64.34-10.7,2.07-15.43,5.6,5.46-3.19,15.44.4,21.63Z"/>
      <path d="M278,146.01c-1.71,7.56-4.64,15.81-5.01,23.5-.1,2.02-.71,2.18-2.47,1.49-3.11-1.21,0-4.13.27-5.71.96-5.76.17-18.9,7.22-19.27Z"/>
      <path d="M214,206.01c.08.06-.86,1.24-.39,2,.51.84,2.78,1.02,2.41,2.98l2.97-2.98-.18,3.87c-3.19-.38-3.37,4.78-5.81.14l1.99-1c-2.02-1.71-10.78-3.64-9.89.35.05.24,4.04,5.12.41,3.63-1.64-.68-6.55-9.27-6.49-10.5.1-2.05,1.49-.94,2.49-.53,1.77.73,4.4,2.87,6.03,3.02s5.38-1.69,6.45-.97Z"/>
      <path d="M227.99,195c1.58,1.68-2.41,5.89-2.7,7.62-.42,2.52.08,7.63-.36,10.81s-3.44,5.03-.94,8.55c-9.46,1.8-.84-12.01-.05-16.54.48-2.76-.56-6.32.21-8.79.55-1.76,3.32-2.21,3.84-1.65Z"/>
      <path d="M189,237c-.54.57-3.77-.28-4-1.52-.08-.43,2.41-6.25,2.75-8.24.49-2.84,0-5.68.49-8.51l3.26-8.72c3.44,4.97-1.6,13.17-2.41,18.57-.26,1.77.21,8.11-.09,8.41Z"/>
      <path d="M241.75,233.25c1.93,1.93-.17,9.01-.24,11.74l-4.52-11.99-5.97,1.99-2.01-6.99,12.74,5.25Z"/>
      <path d="M223,225.01c-1.12,6.93-3.49,13.28-3.13,20.38l-3.86,3.61,3.98-23.33,3.01-.66Z"/>
      <path d="M210.99,219c-.47,1.93,3.46,8.49,3.01,8.99-1.67,1.88-1.99-1.83-2.66-1.99-2.67-.61-6.67-.69-9.33-.01l1-6,3.98,3c-.03-2.99.8-4.55,4-4Z"/>
      <path d="M228.99,187.99c-1.71.2-1.11-3.47-1.02-4.53.45-5.73,3.13-12.09,2.1-17.92-.25-1.42-3.41.5-3.06-1.54,10.81-.08,5.41,4.09,4.24,9.74-.92,4.49-.99,9.68-2.26,14.25Z"/>
      <path d="M184,98.01c-1.25,3.09.18,5.8,0,8.99-7.92.35-8.32-9.36,0-8.99Z"/>
      <path d="M242.01,231.99c-.16-.14-1.14-2.57,0-3.5,1.84-1.52.12,1.99,1.99,1.5.75-2.65-1.45-6.1-1.03-8.34.13-.71,1.84-.56,2.03-1.33.47-1.92-.71-4.7.51-6.32,3,2.65.29,7.23-.39,10.6-.16.77,0,10.19-3.1,7.39Z"/>
      <path d="M198,183.01c.42,1.69-1.68.41-1.97,1.6-.26,1.08.27,5.57-.1,7.81-.26,1.57-1.61,2.64-1.88,4.12-.71,3.99,2.06,10.8-4.04,11.45,1.27-2.98.53-6.53,1.19-9.3.47-1.97,2.39-3.16,2.76-5.24.7-3.9-2.25-11.2,4.03-10.45Z"/>
      <path d="M197,247.01c-1.2,4.02,1.36,8.79-4.99,8.99.38-3.49.06-9.93,4.99-8.99Z"/>
      <path d="M171,201.01c-.64,2.95-1.86,5.06-1.27,8.19l-3.71,10.79c.56-5.44.88-11.66,2.74-16.8.58-1.59-.54-2.68,2.25-2.19Z"/>
      <path d="M233.78,223.21c.39.71.69,3.36-.26,3.77-.65-.54-9.79-2.9-7.52-4.98,1.24-1.13,6.85-.5,7.78,1.2Z"/>
      <path d="M215,184.99c-.43-1.7,1.48-.61,1.89-1.09.23-.27-2.35-6.7,1.59-5.89,4.7.96,1.87,8.36-3.48,6.99Z"/>
      <path d="M352,164c2.09,1.72-5.36,3.83-5.98,4.52l-42.01,10.47,1.16-5.84,13.1-2.39c5.8-3.22,12.57-3.32,18.75-5.25,2.33-.73,5.39-3.19,6.64-3.33,1.75-.19,5.53,3.02,8.34,1.81Z"/>
      <path class="cls-1" d="M211.77,131.3c.17.09.14,1.54.88,1.7,3.05.66,7.63-1.17,9.12,3.74s-5.61,9.62-10.12,7.12c-6.08-3.36-4.55-15.06.12-12.57Z"/>
      <path class="cls-1" d="M239.91,146.08c2.2,8.35-9.43,3.69-8.98-.57.56-5.18,5.77.52,8.98.57Z"/>
    </g>
  </g>
</svg>