<?xml version="1.0" encoding="UTF-8"?>
<svg id="Layer_2" data-name="Layer 2" xmlns="http://www.w3.org/2000/svg" viewBox="0 0 491 768">
  <defs>
    <style>
      .cls-1 {
        fill: #fff;
      }
    </style>
  </defs>
  <g id="Layer_1-2" data-name="Layer 1">
    <g>
      <path class="cls-1" d="M491,738v30H0V0h491v414l-30.99,10.99c3.8-13.18,8.9-26.3,11.74-39.75,5.75-27.19,3.04-52.8-6.73-78.77-2.54-6.75-3.73-11.54-10.7-14.92,2.42-12.18,3.48-25.62,2.67-38.05-.26-3.98-1.4-14.21-2.19-17.81-.39-1.79-2.73-4.98-4.5-5.5-3.27-.95-19.48-.51-23.67-.09-17.28,1.74-46.05,12-60.96,21.04-1.67,1.01-5.55,5.4-5.92,5.56-1.53.63-3.66-.09-4.82.73-.99.7-.41,2.94-1.62,3.59-1.8.97-6.56,1.27-9.31,2.46-3.63,1.57-10.09,7.24-13.68,7.29-1.33.02-9.19-5.1-13.92-5.67-19.5-2.33-64.4,3.87-78.95,17.86-2.34,2.25-.01,3.59-5.43,2.46-2.38,1.12-1.47,4.23-2.22,5.35-.27.4-7.44,5.14-8.06,5.44-6.95,3.43-19.43,5.75-27.26,8.74-4.02,1.54-6.96,4.03-10.44,5.56-2.17.95-5.31.75-8.03,1.97-12.2,5.49-13.59,24.53-10.87,35.89,3.94,16.46,28.56,33.87,36.07,50.93,3.32,7.54,3.35,20.33,14.81,18.69,1.35-5.59-3.49-4.15-5.47-7.02-1.43-2.07-1.81-7.08-3.04-9.96-1.47-3.42-3.73-8.24-5.67-11.33-6.95-11.11-30.25-32.31-31.74-43.26-1.77-13.06-.05-34.11,18.4-30.39,1.4.28,10.43,7.24,8.11-1.05-.74-2.66-3.06-2.1-3.59-3.96l28.96-8.55c3.78,4.45,7.41,5.84,12.02,1.54,0,12.71,1.9,25.74,6.78,37.54-.17,1.11-7.08,4.12-8.71,5.01-1.19.65-2.04,2.49-3.1,2.96-1.27.56-2.69-.44-3.97-.04-9.25,2.83-7.03,10.15-7.03,18.07-.04,43.65,3.8,60.04,21.53,99.48,1.28,2.84,2.49,12.24,7,10.98.97-.27,1.94-2.11,1.35-3.26l-19.87-49.2c-5.81-19.2-3.29-39.33-3.93-59.07-.12-3.66-3.6-10.95,1.96-11.46v24.5c0,12.49,23.83,60.79,29.26,77.74,1.51,4.72.49,12.13,6.74,10.76.18-3.45.12-6.43-.68-9.82-7.9-33.56-33.68-62.62-30.36-98.72.75-8.14,4.45-9.4,11.55-12.07l17.27,13.82c-.53,6.37,2.71,11.78,3.92,17.59,2.07,9.91,2.56,19.84,5.36,29.64,2.51,8.79,7.77,17.36,10.41,25.59.83,2.59,1.51,11.49,3.04,11.96,1.4.44,2.85-.15,3.32-1.65,2.57-8.19-9.87-29.58-12.34-39.33-3.49-13.78-3.61-28.47-8.49-42.01h23c-2.46,25.03,15.47,45.99,31.49,63.01,30.24,32.15,62.6,56.02,84.04,96.96,1.96,3.74,8.83,17.56,9.32,20.76.4,2.59-2.36,4.57-1.81,6.67,1.09,4.12,8.25-.59,7.55-5.43-.57-3.93-6.93-17.79-9.06-22-10.52-20.83-29.34-43.57-45.01-60.99-12.27-13.64-25.79-24.39-38.51-37.49,8.27-5.35-.94-18.24-3.5-3.5-15.22-15.81-31.57-34.68-29.55-58.34,9.67-4,19.33-8.45,27.04-15.66-.84,4.81,2.21,11.99,6.96,13.55,1.73.57,3.69.19,5.29.71,6.57,2.14,17.25,4.7,24.35,5.65,3.53.47,12.43.57,15.86.03,6.63-1.05,9.5-10.68,14.63-13.37,3.48-1.82,8.66-1.33,12.63-3.37,3.11-1.61,4.5-5.13,7.79-6.21,2.28,4.44,4.41,9.42,7.99,13.03,2.41,2.42,7.01,6.76,8.55,1.47-4.18-5.67-9.64-10.29-12.21-17.32l-4.82.83c.5-11.78-9.64-18.73-18.01-24.99,23.37,5.81,57.37,11.37,63.99-19.53,2.62-1.96,7.77,12.22,8.29,13.73,13.67,39.64,7.64,67.9-4.24,106.33-1.19,3.83-3.79,8.13-4.81,12.19-1.2,4.78,1.7,10.69-5.28,8.67-1.25,1.85-.72,3.86-2.39,5.66-1.77,1.91-11.12,6.93-14.46,9.54-12.51,9.78-17.06,18.76-34.86,21.14-3.17.42-13.45-.68-14.22,1.78-.52,1,.67,3.48,1.48,3.48h15c2.03,0,16.34-5.64,18.82-7.18,5.15-3.21,10.2-9.74,15.21-13.79s11.49-8.67,17.47-11.03v23.5c0,4.89,5.22,17.57,8.6,21.4,4.07,4.6,10.28,6.58,14.9,10.1,6.37,4.85,11.74,13.27,18.5,18v98c-18.49-10.61-36.46-22.01-52.98-35.51-2.69-3.26.06-7.52.94-10.92l-.94-1.08c-1.56-.66-3.44-.29-4.96-1.04-23.01-11.31-35.7-26.55-64.68-29.32-24.33-2.32-45.52,4.34-65.36,17.88-4.89-13.69-22.86-14.15-33.35-21.17-13.52-9.04-15.71-32.97-22.49-47.51-4.82-10.34-14.31-19.51-16.9-30.1-.86-3.51-.15-15.67-4.77-14.22-2.65,2.16-1.2,6.03-1.52,8.99l-4.04-.57c-4.89,19.51-25.16,27.2-40.62,36.4-28.81,17.15-71.58,45.21-88.5,74.5-15.93,27.57-16.61,58.82-23.27,88.73-2.72,12.24-11.84,30.79-11.6,43.42.02.85-.4,2.43.53,2.52,8.19-5.18,7.55-18.34,9.97-27.03,1.66-5.97,4.89-11.85,6.28-17.72,5.68-24.05,6.52-50.25,16.07-73.93,17.41-43.13,69.03-70.58,106.85-93.15,10.79-6.44,24.07-17.08,28.34-29.17l4.82,11.66c2.88,6.06,8.23,10.92,11.34,16.66,10.02,18.46,9.37,44.49,28.89,56.11,10.73,6.39,27.83,6.86,30.71,21.29,1.5,7.5,1.24,26.05.17,33.7-1.39,9.92-16.3,11.22-23.26,14.75-9.01,4.56-16.52,20.23-18.23,29.77-.76,4.25.4,11-.97,14.03-2.2,4.89-13.44,5.7-18.03,5.06-5.61-.78-21.11-18.32-26.98-23.02-3.3-2.64-7.6-5.23-11.39-7.12,2.19-11.17,3.87-24.92,11.41-33.91,2.66-3.17,15.04-9.82,9.49-12.54-2.36-.67-5.52,2.07-7.46,3.57-12.75,9.95-15.86,25.84-18.53,40.98-2.56-1.44-10.6-1.65-9.93,2.37.59,3.52,6.39,2.13,8.38,2.68,6.73,1.84,12.21,6.13,17.57,10.43,14.1,11.32,20.45,27.7,41.56,20.58,11.99-4.05,8.34-9.21,9.44-18.56.75-6.34,6.33-20.7,10.55-25.45,6.67-7.5,21.79-6.43,28.88-16.12,6.24-8.54,3.25-32.24,2.64-42.81,19.42-10.93,37.39-19.12,60.41-17.12,18.55,1.61,45.74,14.18,60.45,25.55,1.31,1.01,5.55,4.9,5.91,6.16-4.86,25.91-10.2,52.15-7.82,78.76,1.42,15.89,10.07,35.18,13.53,51.47,1.64,7.7,2.99,16.64,3.39,24.44l4.48,1.5,1.62-2.37c-1.74-8.15-2.56-16.6-4.33-24.72-3.24-14.89-9.67-30.03-12.26-44.74-4.27-24.32.18-49.11,4.56-73.06l55.99,36v29c-5.99-1.44-16.7-9-22.5-9h-16c-.82,0-2,2.49-1.48,3.48l1.65,1.35c14.5-1.4,25.94,3.69,38.34,10.16v25c-6.9,7.55-27.97,7.47-33.07,14.43-1.05,1.43-2.25,4.57.59,4.61,4.18.06,5.16-2.73,8.78-4.24,7.25-3.03,17.09-2.91,23.7-8.8v17c-11.47,3.37-14.72,15.69,0,6v18c-4.73,1.22-28.06,4.63-28.04,10.49,0,1.42,1.04,2.6,2.5,2.52,7.74-4.02,16.8-6.67,25.53-7.01ZM311.5,85c-3.85-1.1-20.51,0-26,0-8.44,0-9.23,5.92-14.45,7.54-8.06,2.5-17.23.93-26.04,4.96-7.43,3.4-15.52,12.73-23.51,16.49l-.59-3.89c-1.34-.55-2.82-1.06-4.18-.19-1.54.99-7.66,12.13-10.21,15.09-10.74,12.48-36.22,22.5-41.78,40.29-1.07,3.42.69,4.99.11,7.96s-6.8,11.42-8.32,15.76c-5.52,15.78-3.97,29-.57,44.52.89,4.05-1.84,7.93,4.04,9.95-8.8,12.73-11.51,30.77-9.98,46,.34,3.35,3.48,14.83,8.47,13.51,3.55-2.65-.82-5.82-1.96-9.02-3.12-8.79-1.07-18.91-.51-27.98,5.5,4.39-2.07,16.5,5.06,19.55-1.74,3.55-3.02,6.27-1.38,10.24.54,1.3,2.36.77,2.41,2.67.17,5.74-5.34,18.52-3.96,22.86l2.37,1.7c4.34-.04,4.87-18.3,6.49-22.03,2.05-.2.38,2.75,1.08,3.88.91,1.45,4.04.78,4.7-1.6,1.59-5.71-2.08-18.89,2.24-22.77,1.13-1.01,3.82-1.17,4.03-2.1.93-4.08-2.8-4.01-3.08-5.12-1.25-4.87.22-25.46,1.63-31.1.62-2.49,1.75-4.74,2.41-7.2l2.09,56.5-.26,1.35c-2.35.91-5.35,1.27-4.84,4.63,1.48,2.21,3.01,1.42,4.98.5-.15,2.26.76,4.81,3.5,4.01,1.74-.51,1.12-3.67,1.77-4.73.61-.98,5.87-2.19,3.14-5.35l-3.44-1.58c-.8-20.84-1.8-41.99-1-62.88.19-4.94,1.65-10.97,2.03-15.97.79-10.19-1.42-15.73,3.13-25.87,5.97-13.3,20.58-26.16,31.96-35.04,44.68-34.85,79.54-32.79,133.15-22.31,45.25,8.84,54.05,28.66,69.57,68.43,1.39,3.57,4.58,7.91,5.98,12.02,1.82,5.36,1.85,11.26,4.71,16.32l1.93.92c2.83-.35,5.66-2.38,8.6-1.56,3.44.97,12.23,15.35,13.93,9,.83-3.1-6.11-9.34-8.45-11.4-1.39-1.22-4.27-1.86-4.97-2.95-.34-.53.39-2.48-.62-4.37-1.4-2.61-18.2-17.45-14.91-20.66.21-.2,4.48.85,3.52-3.1-.89-3.65-9.1-12.81-10.51-17.42-.16-.52-.28-1.63.48-1.47,6.37,4.69,11.48,17.51,17.59,21.45.99.64,2.74.25,3.64.82,1.97,1.25,1.76,8.4,7.28,3.21-4.41-14.09-14.55-20.42-24.55-29.43-4.87-4.39-.67-3.95-8.01-5.39-1.14-.22-1.05-2.06-1.65-2.42-1.09-.66-3.2.03-4.79-.72-.83-.4-4.97-5.68-3.5-6.51l7.04,5.04,2.96-3.04c4.57,3.38,8.62,7.38,12.53,11.47,1.3,1.36,2.84,4.49,3.99,5.09,2.1,1.11,4.53-1.2,5.84-.45.95.54,9.24,16.77,10.32,19.21,5.43,12.24,7.57,25.79,14.82,37.18-6.39,1.04-6.65,7.57-7.03,12.95-.27,3.8-.96,22.73,2.57,23.53,1.15.17,2.54-1.12,2.96-2.01,2.51-5.42-2.11-29.23,2.67-31.79.38-.2,1.6.76,2.21.59l1.17-.73c2.17-3.29-2.71-8.63-4.02-12.07-6.07-15.92-10.75-36.79-22.01-49.99-5.74-6.73-5.79-2.97-9.49-4.45-1.95-.78-13.37-13.41-18.49-16.56-4.31-2.65-9.63-3.85-13.06-5.94-2.72-1.66-4.73-6.65-8.47-7.05,6.99-11.9-12.41-4.65-17.39-5.01-4.19-.31-12.79-3.41-17.6-4.48-3.29-.73-6.61-1.57-10.01-1.5.28-1.72,1.99-1.74,3.23-2.26,6.4-2.69,14.87-3.91,21.77-3.72-.45,2.05-4.29.92-5.53,2.96-1.09,1.79-.71,3.86,1.06,5.03,7.12-4.09,11.13-2.5,18.3-1.24,1.7.3,3.34-.6,4.9-.03,4.11,1.52,13.85,15.96,16.71,15.25,1.29-.32,1.74-2.14,1.59-3.45-.38-3.35-15.74-15.75-18.98-19.09-1.11-1.15-1.09-3.29-2.04-3.96-.62-.44-11.87-3.32-14.55-4.45-4.87-2.06-12.81-5.66-15.08-9.91-9.06-.97-19.94-.86-28.78-2.22-8.54-1.32-16.38-6.5-25.6-4.9-.24-1.66,2.51-1.08,2.97-2.52.39-1.2-.39-3.16-1.47-3.47ZM437.51,193.01c-3.94,1.13,1.01,7.31,2.08,8.9,3.47,5.17,13.85,17.27,18.38,21.62,5.5,5.29,7.69,1.65,3.44-4.44-5.85-8.38-15.19-15.41-20.55-24.45-.62-1.35-1.92-2.05-3.35-1.64ZM404,229h15.5c.64,0,4.04-2.14,5.32-2.68,1.72-.72,6.4.05,5.17-3.81-.68-2.15-10.66-1.84-13.26-2.74-1.65-.57-2.28-2.58-4.24-2.78-3.27-.33-18.62,1.52-22.87,2.13-6.31.91-21.45,4.58-24.49,10.51-.68,1.32-2.18,11.05-2.01,11.79,1.1,4.85,8.79-2.36,9.88-1.41l-.57,3c4.34,3.34,4.33-.73,6.17-1.87,7.45-4.62,16.45-5.22,24.82-7.03l.58-5.12ZM288,258.01c-1,2.07-1.05,3.21,1.03,4.53,2.63,1.2,13.66-4.46,17.71-5.31,4.04-.84,10.03,1.58,11.26-3.71-3.14-4.45-7.09-1.09-10.42-1.51-1.57-.19-6.84-3.63-9.62-4.47-5.52-1.66-11.46-2.21-17.21-1.31-3.79.6-12.29,5.78-13.23,5.79-.88,0-.62-1.98-1.47-2.55-4.94-3.36-21.85,11.22-20.9,15.88,1.26,6.21,5.61-.97,5.97-1.21.31-.21,2.13.98,3.32.86,2.08-.2,3.32-2.56,5.25-2.83,2.97-.42,4.55-.5,7.88-1.1,6.73-1.2,13.76-1.1,20.42-3.06ZM198.19,350.83c.21.36,2.06.72,2.82,1.61,3.7,4.31.7,12.75,4.12,18.92,1.45,2.61,7.64,8.46,10.9,6.17,4.2-2.96-3.21-5.28-4.56-6.51-4.32-3.98-1.23-15.64-6-22-3.97-5.29-9.74-2.35-7.28,1.81ZM463.91,356.09l-3.78.06c-1.21,9.42-12.21,21.49-12.22,30.36,0,4.74,3.6,6.46,4.87,2.78,1.38-3.97,1.85-7.87,3.74-12.26,1.39-3.21,10.68-19.03,7.38-20.94ZM307.01,390c4.77,1.39,7.47-6,8.77-9.72,1.01-2.89,5.08-17.23,1.71-18.27-4.87-1.5-4.3,7.53-4.93,10.05-1.66,6.57-5.36,11.54-5.55,17.94ZM416.76,374.18c-4.65.61-12.84,6.31-17.79,8.3-3.35,1.35-7.37,1.58-10.97,3.03-4.69,1.9-12.6,7.41-16.74,8.26-7.32,1.5-19.11.29-27.5,1.5-2.97.43-16.76,3.4-18.34,4.66-2.57,2.07-1.88,5.21,1.78,4.88,5.32-.49,10.99-3.45,17.23-3.86,16.17-1.06,27.89,8.88,43.45-1.55,8.32-5.58,12.08-11.97,22.87-15.13,2.83-.83,14.92-1.09,12.75-5.28-1.33-2.57-3.61-5.22-6.76-4.81ZM435,406.5v28c0,.82,2.49,2,3.48,1.48,2.56-.8,1.41-13.4,1.47-16.52.11-5.44,1.37-9.49-.42-15.49s-7.77-9.32-11.53-13.47c-2.07-2.29-2.31-6.94-6.49-6.5-2.98,1.98-.54,5.59,1.05,7.93,2.83,4.16,11.46,9.71,12.43,14.57ZM354.28,426.73c3.76,3.88,20.65,4.11,25.75,2.8,4.61-1.18,21.28-12.96,19.97-18l-2.5-1.57c-11.38,9.53-15.09,16.8-31.98,15.02-3.23-.34-11.61-4.93-12.49-1.42.17,1.05.52,2.4,1.26,3.16ZM206.74,499.75c2.5-2.39,1.16-5.31-3.01-4.57-2.09.37-12.86,6.16-15.4,7.65-19.03,11.11-43.92,38.32-54.5,57.5-10.89,19.75-18.05,42.53-26.66,63.36,1.26,4.02,3.54,4.37,5.6.58,2.78-5.1,12.29-35.79,14.27-37.26l4.88.92c1.14-4.31,3.05-8.39,5.28-12.23,8.88-15.34,28.47-45.51,41.79-56.21,2.61-2.09,10.13-5.59,11.13-6.95,1.37-1.85-.72-3.21.84-5,3.09-3.54,13.69-5.79,15.78-7.78ZM209.68,514.14c-10.96,7.03-21,15.68-29.71,25.34-2.71,3-16.41,16.4-4.96,14.04,6.07-6.93,12.23-14.8,18.98-21.02,2.79-2.58,19.27-14.14,18.95-15.86l-3.26-2.49ZM192.3,546.41l-43.31,64.91,4.95,3.3,43.31-64.91-4.95-3.3ZM170.83,617.81c5.59-8.72,11.07-20.87,18.17-28.3,3.15-3.29,9.94-6.4,12.02-8.98,3.91-4.86-4.13-3.14-7.34-1.34-12.34,6.9-20,24.22-27.25,35.78l.53,2.57,3.87.28ZM115.79,643.29c-3.13.34-13.8,2.2-13.84,6.19-.04,5.16,7.73.01,10.63-.39,11.8-1.65,26.01-1.07,37.9-.08,3.15.26,16.47,3.71,17.5.48,1.4-4.38-10.64-4.97-13.62-5.36-11.37-1.48-27.21-2.06-38.58-.83ZM139.79,665.29c-11.68.65-23.39,2.47-34.32,6.68-3.14,1.21-16.59,6.54-15.48,10.51,1.03,1.4,1.54,1.61,3.27,1.36,3.06-.46,11.42-6.08,15.47-7.6,14.29-5.36,29.55-4.9,44.56-6.44l2.7-2.31c.83-4.03-13.32-2.35-16.2-2.19ZM320,748v-21.5c0-1.86-1.57-9.59-2.26-11.73-5.78-18.04-41.26-6.05-43.74-31.26-.72-7.27,1.64-6.98,2.8-11.23,1.77-6.52-4.93-4.64-7.29,1.75-5.37,14.56,6.22,28.21,19.68,32.28,10.77,3.26,22.95.47,24.69,15.31.91,7.71-.04,16.76,1.32,24.68,1.25,2.85,2.25,2.49,4.8,1.71ZM345.84,699.86c-1.01.59-11.31-2.19-13.35-2.85-7.06-2.28-16-6.44-21-12-1.44-1.61-8.65-15.32-10.42-9.39s11.47,17.7,16.26,20.55c10.79,6.4,22.4,5.86,30.95,10.05,4.05,1.99,11.31,12.62,19.4,16.6,3.64,1.79,20.36,6.82,21.26,1.55-1.21-5.09-7.14-2.86-11.18-3.63-13.94-2.66-21.3-13.35-29.28-23.73-2.05-.51-2,2.48-2.64,2.85ZM165.5,683c-2.47-.7-11.54,0-15,0-9.78,0-33.78,12.91-41.51,19.49-3.3,2.81-8,6.99-8,11.52l-4.87-.89c-1.33,5.26-9.7,14.26-9.15,19.38.15,1.43.96,2.64,2.54,2.52,1.9.18,1.92-1.31,2.54-2.47,1.79-3.36,5.24-12.24,7.46-14.6,1.51-1.6,3.4.59,5.05-.81,1.42-1.21,2.05-4.91,3.9-7.17s7.99-6.62,10.63-8.37c13.58-9.04,29.79-14.47,46.25-13.75l1.65-1.35c.38-1.2-.4-3.17-1.48-3.48ZM215.64,691.08c-7.95,1.33-15.16,38.93-15.63,46.43-.24,3.88-.7,23.76,3.61,24.43,5.78-1.89,1.27-13.13,1.29-18.44s1.52-15.13,2.54-20.55c1.84-9.8,5.12-20.84,11.42-28.63.2-1.31-1.89-3.46-3.22-3.23ZM194.96,700.03l-4,.43c-12.67,8.54-27.95,12.15-40.89,20.12-10.3,6.35-18.46,15.64-28.06,22.94-2.04,2.03-1.42,6.05,2.05,5.07,2.7-.76,17.45-15.56,21.45-18.57,15.94-11.98,34.61-14.99,50-27l-.55-2.99ZM248.91,704.09c-1.02-.69-4.37-.15-4.84,1.53-.16.57.85,10.07,1.05,11.75,1.73,14.71,6.88,26.61,18.88,35.61-5.95-1.49-11.61-8.91-14.42-14.07-3.22-5.92-3.46-11.76-6.08-16.92-1.36-2.68-3.42-4.74-5.03-.97-.7,1.65,3.61,14.73,4.75,17.25,1.98,4.38,7.69,12.59,11.3,15.7,2.49,2.15,13.08,7.74,15.87,6.97,2.05-.57.97-6.4,1.91-8.63-11.35-8.41-18.46-15.62-21.05-30.07-.5-2.81-.85-17.14-2.34-18.15ZM175.19,727.23c-.29.17-.8,1.83-1.82,2.6-3.2,2.43-6.96,4.51-9.9,7.15-3.14,2.81-14.4,16.38-15.28,19.76-1.01,3.89,1.59,5.81,4.68,2.63,3.95-4.07,7.35-12.2,12.14-16.86,2.84-2.77,15.79-10.03,15-13.99-.97-1.54-3.26-2.18-4.81-1.29Z"/>
      <path d="M491,521c-6.76-4.73-12.13-13.15-18.5-18-4.62-3.52-10.84-5.5-14.9-10.1-3.38-3.83-8.6-16.51-8.6-21.4v-23.5c-5.98,2.35-12.42,6.94-17.47,11.03s-10.06,10.58-15.21,13.79c-2.47,1.54-16.78,7.18-18.82,7.18h-15c-.82,0-2-2.49-1.48-3.48.77-2.45,11.05-1.35,14.22-1.78,17.8-2.38,22.35-11.36,34.86-21.14,3.34-2.61,12.69-7.63,14.46-9.54,1.67-1.79,1.14-3.81,2.39-5.66,6.98,2.02,4.08-3.89,5.28-8.67,1.02-4.06,3.62-8.36,4.81-12.19,11.89-38.42,17.91-66.69,4.24-106.33-.52-1.51-5.67-15.69-8.29-13.73-6.63,30.89-40.63,25.33-63.99,19.53,8.37,6.26,18.51,13.21,18.01,24.99l4.82-.83c2.57,7.03,8.03,11.65,12.21,17.32-1.54,5.29-6.15.95-8.55-1.47-3.58-3.61-5.72-8.59-7.99-13.03-3.29,1.08-4.67,4.61-7.79,6.21-3.97,2.05-9.15,1.55-12.63,3.37-5.14,2.69-8,12.32-14.63,13.37-3.43.54-12.33.44-15.86-.03-7.1-.95-17.78-3.51-24.35-5.65-1.6-.52-3.56-.14-5.29-.71-4.75-1.56-7.8-8.74-6.96-13.55-7.71,7.21-17.37,11.66-27.04,15.66-2.02,23.66,14.33,42.53,29.55,58.34,2.56-14.74,11.77-1.85,3.5,3.5,12.72,13.1,26.24,23.86,38.51,37.49,15.67,17.42,34.5,40.15,45.01,60.99,2.13,4.21,8.49,18.07,9.06,22,.7,4.85-6.46,9.55-7.55,5.43-.56-2.1,2.2-4.08,1.81-6.67-.49-3.19-7.36-17.02-9.32-20.76-21.43-40.94-53.79-64.81-84.04-96.96-16.01-17.02-33.94-37.99-31.49-63.01h-23c4.88,13.54,5,28.23,8.49,42.01,2.47,9.75,14.91,31.14,12.34,39.33-.47,1.51-1.92,2.09-3.32,1.65-1.52-.48-2.2-9.37-3.04-11.96-2.65-8.23-7.9-16.8-10.41-25.59-2.8-9.8-3.28-19.74-5.36-29.64-1.22-5.81-4.45-11.22-3.92-17.59l-17.27-13.82c-7.11,2.68-10.8,3.93-11.55,12.07-3.32,36.1,22.46,65.16,30.36,98.72.8,3.4.86,6.37.68,9.82-6.24,1.36-5.23-6.04-6.74-10.76-5.43-16.96-29.26-65.25-29.26-77.74v-24.5c-5.56.5-2.08,7.79-1.96,11.46.63,19.74-1.89,39.88,3.93,59.07l19.87,49.2c.59,1.15-.38,2.99-1.35,3.26-4.51,1.26-5.72-8.14-7-10.98-17.72-39.44-21.57-55.82-21.53-99.48,0-7.92-2.22-15.24,7.03-18.07,1.29-.4,2.71.6,3.97.04,1.06-.47,1.91-2.31,3.1-2.96,1.63-.89,8.54-3.9,8.71-5.01-4.88-11.8-6.78-24.83-6.78-37.54-4.61,4.3-8.25,2.91-12.02-1.54l-28.96,8.55c.53,1.86,2.85,1.3,3.59,3.96,2.32,8.29-6.7,1.33-8.11,1.05-18.45-3.71-20.18,17.33-18.4,30.39,1.49,10.95,24.78,32.15,31.74,43.26,1.94,3.1,4.2,7.91,5.67,11.33,1.24,2.88,1.62,7.89,3.04,9.96,1.98,2.88,6.82,1.43,5.47,7.02-11.46,1.65-11.49-11.15-14.81-18.69-7.51-17.06-32.14-34.47-36.07-50.93-2.72-11.37-1.33-30.4,10.87-35.89,2.72-1.22,5.86-1.02,8.03-1.97,3.48-1.52,6.42-4.02,10.44-5.56,7.83-2.99,20.31-5.31,27.26-8.74.62-.31,7.79-5.04,8.06-5.44.76-1.12-.16-4.23,2.22-5.35,5.42,1.13,3.1-.21,5.43-2.46,14.55-13.99,59.45-20.19,78.95-17.86,4.74.57,12.59,5.69,13.92,5.67,3.59-.05,10.05-5.71,13.68-7.29,2.75-1.19,7.51-1.48,9.31-2.46,1.21-.65.63-2.89,1.62-3.59,1.16-.82,3.28-.1,4.82-.73.38-.15,4.25-4.55,5.92-5.56,14.91-9.04,43.68-19.3,60.96-21.04,4.19-.42,20.4-.87,23.67.09,1.77.52,4.11,3.71,4.5,5.5.79,3.6,1.93,13.83,2.19,17.81.81,12.42-.25,25.87-2.67,38.05,6.97,3.38,8.16,8.17,10.7,14.92,9.77,25.96,12.48,51.58,6.73,78.77-2.84,13.45-7.95,26.57-11.74,39.75l30.99-10.99v6l-33.02,11.48c-1.47,1.26-.89,5.11-1.65,7.35-3.44,10.09-1.78,5.62-1.34,15.69.64,14.74-2.85,27.33,10.1,37.9,4.05,3.31,9.37,5.31,13.39,8.61,4.7,3.85,7.33,9.63,12.52,12.98v7ZM448.86,235.14c-19.46-.81-39.3,3.34-57.62,9.6-6.96,2.37-17.56,7.28-23.57,11.43-3.43,2.37-4.78,5.76-8.19,7.84-1.92,3.22,7.66,23.11,10.01,27.02,7.8,13,16.38,20.51,31.47,23.53,11.01,2.21,32.86,3.8,40.57-5.53,8.43-10.2,11.37-38.58,10.52-51.56-.46-6.97-2.42-15.21-3.18-22.32ZM354.99,270l-18.97,6.02c-.73,4.5,2.21,8.33,2.9,12.56,2.38,14.69,1.35,28.05-5.52,41.31-1.67,3.21-8.26,10.5-8.84,12.06-.49,1.32.9,10.52,2.01,12,2.61,3.46,11.35,1.54,15.71,2.29,8.88,1.52,24.06,11.24,32.73,3.26,2.65-2.45,4.07-8.18,5.01-8.99,4.79-4.17,19.13-3.33,21.52-8.52,4.52-9.83-19.93-20.85-23.4-27.59-1.16-2.25-.78-4.44-1.66-6.34-1.23-2.64-6.65-6.98-8.46-9.54-5.68-8.05-10.38-19.08-13.01-28.5ZM329.7,277.3c-1.07-1.53-9.13-5.9-11.26-6.24-13.77-2.15-41.49.92-55.23,4.64-4.2,1.14-20.11,7.64-22.28,10.72-.94,1.34-2.02,9.95-2.01,12.07.04,19.36,1.96,37.21,15.02,52.07,7.83,8.91,19.55,8.33,30.6,7.47,33.24-2.59,52.65-34.98,49.45-66.52-.24-2.38-3.16-12.6-4.29-14.21Z"/>
      <path d="M491,625l-55.99-36c-4.37,23.95-8.83,48.73-4.56,73.06,2.58,14.72,9.02,29.86,12.26,44.74,1.77,8.13,2.59,16.58,4.33,24.72l-1.62,2.37-4.48-1.5c-.39-7.8-1.75-16.74-3.39-24.44-3.46-16.29-12.11-35.58-13.53-51.47-2.38-26.6,2.97-52.85,7.82-78.76-.36-1.26-4.59-5.15-5.91-6.16-14.71-11.37-41.9-23.94-60.45-25.55-23.02-2-40.98,6.19-60.41,17.12.61,10.56,3.61,34.26-2.64,42.81-7.08,9.69-22.21,8.62-28.88,16.12-4.22,4.75-9.8,19.11-10.55,25.45-1.11,9.35,2.55,14.51-9.44,18.56-21.11,7.12-27.45-9.25-41.56-20.58-5.36-4.3-10.84-8.59-17.57-10.43-1.99-.55-7.79.84-8.38-2.68-.67-4.02,7.36-3.81,9.93-2.37,2.68-15.14,5.78-31.03,18.53-40.98,1.93-1.51,5.09-4.24,7.46-3.57,5.56,2.72-6.83,9.37-9.49,12.54-7.54,8.99-9.22,22.74-11.41,33.91,3.8,1.89,8.09,4.48,11.39,7.12,5.87,4.7,21.37,22.24,26.98,23.02,4.59.64,15.83-.17,18.03-5.06,1.36-3.03.21-9.78.97-14.03,1.71-9.54,9.22-25.21,18.23-29.77,6.96-3.52,21.86-4.83,23.26-14.75,1.07-7.65,1.33-26.2-.17-33.7-2.88-14.43-19.98-14.91-30.71-21.29-19.52-11.62-18.87-37.66-28.89-56.11-3.12-5.74-8.46-10.6-11.34-16.66l-4.82-11.66c-4.26,12.08-17.55,22.73-28.34,29.17-37.82,22.57-89.44,50.02-106.85,93.15-9.56,23.67-10.39,49.88-16.07,73.93-1.39,5.87-4.62,11.75-6.28,17.72-2.42,8.69-1.78,21.85-9.97,27.03-.93-.09-.51-1.67-.53-2.52-.24-12.62,8.87-31.18,11.6-43.42,6.65-29.91,7.34-61.16,23.27-88.73,16.92-29.28,59.69-57.35,88.5-74.5,15.46-9.2,35.73-16.89,40.62-36.4l4.04.57c.32-2.96-1.13-6.83,1.52-8.99,4.61-1.45,3.91,10.7,4.77,14.22,2.59,10.59,12.07,19.76,16.9,30.1,6.78,14.53,8.98,38.46,22.49,47.51,10.49,7.01,28.46,7.48,33.35,21.17,19.85-13.54,41.04-20.2,65.36-17.88,28.98,2.77,41.67,18.01,64.68,29.32,1.53.75,3.4.38,4.96,1.04l.94,1.08c-.88,3.4-3.63,7.67-.94,10.92,16.52,13.51,34.49,24.91,52.98,35.51v6Z"/>
      <path class="cls-1" d="M491,420v94c-5.19-3.35-7.83-9.12-12.52-12.98-4.02-3.3-9.34-5.3-13.39-8.61-12.95-10.57-9.46-23.16-10.1-37.9-.44-10.07-2.1-5.6,1.34-15.69.76-2.24.18-6.08,1.65-7.35l33.02-11.48Z"/>
      <path d="M491,654v6c-12.4-6.48-23.84-11.56-38.34-10.16l-1.65-1.35c-.52-1,.67-3.48,1.48-3.48h16c5.8,0,16.51,7.56,22.5,9Z"/>
      <path d="M491,691c-6.6,5.89-16.44,5.78-23.7,8.8-3.62,1.51-4.6,4.29-8.78,4.24-2.84-.04-1.63-3.17-.59-4.61,5.09-6.97,26.16-6.89,33.07-14.43v6Z"/>
      <path d="M491,732v6c-8.73.34-17.79,3-25.53,7.01-1.46.08-2.5-1.11-2.5-2.52-.02-5.87,23.3-9.27,28.04-10.49Z"/>
      <path d="M491,708v6c-14.72,9.69-11.47-2.63,0-6Z"/>
      <path d="M311.5,85c1.09.31,1.86,2.27,1.47,3.47-.46,1.43-3.21.86-2.97,2.52,9.22-1.6,17.06,3.58,25.6,4.9,8.84,1.37,19.72,1.25,28.78,2.22,2.28,4.25,10.22,7.85,15.08,9.91,2.67,1.13,13.93,4.01,14.55,4.45.94.67.92,2.82,2.04,3.96,3.24,3.34,18.6,15.74,18.98,19.09.15,1.31-.31,3.12-1.59,3.45-2.86.72-12.6-13.73-16.71-15.25-1.56-.57-3.2.33-4.9.03-7.17-1.26-11.18-2.86-18.3,1.24-1.76-1.17-2.14-3.24-1.06-5.03,1.24-2.04,5.07-.91,5.53-2.96-6.9-.19-15.37,1.02-21.77,3.72-1.24.52-2.95.54-3.23,2.26,3.4-.07,6.72.77,10.01,1.5,4.81,1.07,13.42,4.17,17.6,4.48,4.98.36,24.38-6.89,17.39,5.01,3.74.4,5.75,5.39,8.47,7.05,3.43,2.1,8.75,3.29,13.06,5.94,5.12,3.15,16.54,15.78,18.49,16.56,3.7,1.48,3.75-2.28,9.49,4.45,11.26,13.2,15.94,34.07,22.01,49.99,1.31,3.44,6.19,8.79,4.02,12.07l-1.17.73c-.61.17-1.83-.79-2.21-.59-4.78,2.56-.16,26.37-2.67,31.79-.41.89-1.81,2.18-2.96,2.01-3.53-.8-2.84-19.73-2.57-23.53.38-5.38.64-11.91,7.03-12.95-7.25-11.39-9.39-24.94-14.82-37.18-1.08-2.45-9.38-18.67-10.32-19.21-1.31-.74-3.74,1.56-5.84.45-1.14-.6-2.68-3.73-3.99-5.09-3.91-4.09-7.96-8.09-12.53-11.47l-2.96,3.04-7.04-5.04c-1.47.83,2.67,6.12,3.5,6.51,1.59.76,3.7.06,4.79.72.6.36.51,2.2,1.65,2.42,7.35,1.43,3.15,1,8.01,5.39,10,9.01,20.14,15.34,24.55,29.43-5.51,5.19-5.3-1.96-7.28-3.21-.89-.57-2.65-.18-3.64-.82-6.11-3.94-11.23-16.76-17.59-21.45-.76-.16-.64.96-.48,1.47,1.41,4.61,9.62,13.77,10.51,17.42.96,3.96-3.32,2.9-3.52,3.1-3.29,3.21,13.52,18.06,14.91,20.66,1.01,1.89.28,3.84.62,4.37.7,1.09,3.58,1.73,4.97,2.95,2.34,2.06,9.28,8.31,8.45,11.4-1.7,6.35-10.49-8.03-13.93-9-2.94-.83-5.77,1.21-8.6,1.56l-1.93-.92c-2.85-5.05-2.88-10.96-4.71-16.32-1.4-4.11-4.59-8.45-5.98-12.02-15.52-39.77-24.32-59.58-69.57-68.43-53.61-10.48-88.47-12.54-133.15,22.31-11.38,8.88-25.99,21.74-31.96,35.04-4.55,10.14-2.34,15.68-3.13,25.87-.39,5-1.84,11.02-2.03,15.97-.8,20.89.2,42.04,1,62.88l3.44,1.58c2.73,3.16-2.53,4.37-3.14,5.35-.65,1.06-.03,4.22-1.77,4.73-2.74.81-3.65-1.74-3.5-4.01-1.97.93-3.51,1.71-4.98-.5-.51-3.36,2.49-3.72,4.84-4.63l.26-1.35-2.09-56.5c-.66,2.45-1.78,4.71-2.41,7.2-1.41,5.64-2.88,26.22-1.63,31.1.29,1.11,4.01,1.04,3.08,5.12-.21.93-2.9,1.09-4.03,2.1-4.32,3.88-.65,17.06-2.24,22.77-.66,2.38-3.79,3.04-4.7,1.6-.7-1.12.97-4.08-1.08-3.88-1.62,3.73-2.15,21.99-6.49,22.03l-2.37-1.7c-1.38-4.35,4.13-17.13,3.96-22.86-.06-1.9-1.88-1.37-2.41-2.67-1.64-3.97-.36-6.69,1.38-10.24-7.13-3.05.45-15.16-5.06-19.55-.56,9.07-2.61,19.19.51,27.98,1.14,3.2,5.5,6.38,1.96,9.02-4.99,1.32-8.13-10.16-8.47-13.51-1.53-15.23,1.18-33.26,9.98-46-5.88-2.01-3.15-5.89-4.04-9.95-3.4-15.52-4.95-28.75.57-44.52,1.52-4.34,7.75-12.84,8.32-15.76s-1.18-4.54-.11-7.96c5.56-17.8,31.04-27.82,41.78-40.29,2.56-2.97,8.68-14.11,10.21-15.09,1.36-.87,2.84-.36,4.18.19l.59,3.89c7.99-3.76,16.08-13.09,23.51-16.49,8.81-4.03,17.98-2.46,26.04-4.96,5.22-1.62,6.01-7.54,14.45-7.54,5.49,0,22.15-1.1,26,0ZM288.5,116c6.68-.79,14.66.58,21.5,0-3.23-4.12-9.84-5.34-12.85-9.65-1.21-1.73-3.05-5.45-1.69-7.38,3.3-4.66,5.79,5.58,8.53,6.03l-2.19-12.8c-6.42-2.2-13.26-1.16-19.8-.19.41,2.88,4.57,4.43,5.46,6.01,1.43,2.51,1.02,6.13,3.52,9.22,1.34,1.66,5.04,2.61,5.06,5.26.02,3.44-3.28,2.47-5.39,1.36-4.55-2.39-8.5-10.77-7.64-15.86-5.77-.11-9.85-1.1-13.63,3.95-2.77-1.02-3.74-3.85-7.37-2.93,1.7,6.03,6.63,5.53,10.89,9.6.97.93,4.95,6.08,4.88,6.9-3.47,6.11-7.51-3.1-11.41-5.37s-8.99-1.23-10.93-5.17l-7.42,2.01c4.32-.34,14.02,5.65,9.47,10.01-4.28-1.2-5.21-4.45-9.95-5.02-2.41-.29-18.58.11-18.51,3.52l12.98,9.01c1.31,6.21-17.83-2.07-16.01-7.52l-4.47,2.01-2.51-4c-1.25,3.88-4.18,6.85-6.21,10.29-.87,1.48-.57,3.62-1.75,5.25-1.84,2.56-11.96,7.24-15.37,9.63-4.81,3.38-9.44,7.23-13.68,11.32,1.75-.06,9.36-1.46,10.04-1.96,1.32-.96.8-5.48,3.45-6.53,3.88,1.39.71,7.56,4.48,6.98,1.07-4.14,2.87-8.93,8.01-7.99,2.35,2.34-8.61,14.48-3.49,17.97,17.04-14.93,35.45-30.93,57.48-37.5,6.69-1.99,20.04-5.71,26.52-6.48ZM340,103.02c-4.37-2.93-11.83-.94-15.35-2.17-1.53-.53-1.55-2.85-3.36-3.64-1.53-.67-11.71-1.79-12.29-1.21-.49,6.16-.11,9.86,3.95,14.56,1.16,1.34,2.82,1.78,3.77,2.73,1.2,1.2.61,4.11,3.21,4.26l21.07,3.45c-2.74-6.29-4.75-11.43-.99-17.98ZM368.99,108.01c-8.25-3.2-16.18-4.93-24.95-2.97-1.39,4.05-.92,13.47,5.19,12.8,1.08-.12,14.91-4.54,15.54-5.07.9-.76.62-3.04,1.44-3.6.93-.64,3.1.68,2.78-1.16ZM188,166.01c-6.27-6.55-21.66,12.57-21.99,18.98,5.76-5.9,8.89-12.04,16.59-15.9,2.36-1.18,6.09-.16,5.4-3.08ZM193.99,170.01c-1.49-1.7-2.19,1.91-3.19,2.32-2.53,1.03-4.81.45-7.76,2.21-.91.55-10.48,9.88-10.04,10.45,2.87.9,7.72,1.55,9,4.39l1.98.62c-.71-3.49,10.75-19.15,10.01-19.99ZM175.99,191.01c-2.04.09-4.32-.37-6.29.2-4.48,1.3-11.75,20.65-11.7,25.79l7.55-14.93,10.43-11.06ZM183,196.01c-8.06,1.11-14.84,9.41-16.99,16.99,8.79,1.21,8.57-8.27,15.95-8.03l1.04-8.95ZM180.99,230.01l1-20.01-2.56,2c3.61,5.71-1.14,4.09-3.89,7.04-2.45,2.63-10.04,24.05-8.53,25.96,1.23-1.04,4.19-.66,4.81-1.17,1.45-1.21,2.65-17.7,9.17-13.82ZM170.79,276.8l.2-27.8c-7.8,2.64-7.57,10.2-8.03,17.46-.32,5.11.31,10.42.05,15.54l7.78-5.2Z"/>
      <path d="M206.74,499.75c-2.09,1.99-12.7,4.24-15.78,7.78-1.56,1.79.54,3.16-.84,5-1.01,1.36-8.53,4.85-11.13,6.95-13.32,10.7-32.92,40.87-41.79,56.21-2.22,3.84-4.13,7.92-5.28,12.23l-4.88-.92c-1.98,1.47-11.49,32.16-14.27,37.26-2.06,3.78-4.34,3.44-5.6-.58,8.61-20.83,15.77-43.61,26.66-63.36,10.58-19.18,35.47-46.39,54.5-57.5,2.55-1.49,13.32-7.28,15.4-7.65,4.17-.73,5.51,2.18,3.01,4.57Z"/>
      <path d="M404,229l-.58,5.12c-8.37,1.8-17.37,2.41-24.82,7.03-1.84,1.14-1.83,5.21-6.17,1.87l.57-3c-1.09-.95-8.78,6.26-9.88,1.41-.17-.74,1.34-10.47,2.01-11.79,3.04-5.93,18.18-9.6,24.49-10.51,4.26-.62,19.61-2.47,22.87-2.13,1.96.2,2.6,2.21,4.24,2.78,2.6.9,12.57.59,13.26,2.74,1.23,3.87-3.45,3.09-5.17,3.81-1.28.54-4.69,2.68-5.32,2.68h-15.5Z"/>
      <path d="M416.76,374.18c3.15-.41,5.43,2.24,6.76,4.81,2.17,4.19-9.91,4.45-12.75,5.28-10.79,3.16-14.55,9.56-22.87,15.13-15.56,10.43-27.28.49-43.45,1.55-6.24.41-11.91,3.37-17.23,3.86-3.67.33-4.36-2.81-1.78-4.88,1.58-1.27,15.37-4.23,18.34-4.66,8.39-1.21,20.18,0,27.5-1.5,4.14-.85,12.05-6.36,16.74-8.26,3.59-1.46,7.62-1.69,10.97-3.03,4.94-1.99,13.13-7.7,17.79-8.3Z"/>
      <path d="M288,258.01c-6.66,1.96-13.68,1.86-20.42,3.06-3.34.6-4.92.68-7.88,1.1-1.94.27-3.18,2.63-5.25,2.83-1.19.12-3.01-1.07-3.32-.86-.36.24-4.71,7.42-5.97,1.21-.95-4.66,15.95-19.23,20.9-15.88.84.57.58,2.56,1.47,2.55.94,0,9.43-5.19,13.23-5.79,5.75-.9,11.69-.36,17.21,1.31,2.78.84,8.05,4.28,9.62,4.47,3.33.41,7.28-2.94,10.42,1.51-1.23,5.29-7.22,2.87-11.26,3.71-4.05.84-15.08,6.51-17.71,5.31-2.08-1.33-2.03-2.46-1.03-4.53Z"/>
      <path d="M248.91,704.09c1.5,1.01,1.84,15.34,2.34,18.15,2.58,14.45,9.7,21.66,21.05,30.07-.95,2.23.14,8.06-1.91,8.63-2.79.78-13.37-4.82-15.87-6.97-3.61-3.11-9.32-11.32-11.3-15.7-1.14-2.52-5.45-15.61-4.75-17.25,1.61-3.77,3.67-1.71,5.03.97,2.62,5.16,2.85,11,6.08,16.92,2.81,5.16,8.47,12.58,14.42,14.07-11.99-9.01-17.14-20.9-18.88-35.61-.2-1.68-1.21-11.18-1.05-11.75.47-1.68,3.82-2.22,4.84-1.53Z"/>
      <path d="M320,748c-2.54.78-3.55,1.14-4.8-1.71-1.35-7.92-.41-16.97-1.32-24.68-1.74-14.84-13.91-12.05-24.69-15.31-13.46-4.07-25.05-17.72-19.68-32.28,2.35-6.38,9.06-8.26,7.29-1.75-1.16,4.26-3.52,3.97-2.8,11.23,2.48,25.21,37.95,13.22,43.74,31.26.69,2.15,2.26,9.87,2.26,11.73v21.5Z"/>
      <path d="M345.84,699.86c.64-.37.6-3.37,2.64-2.85,7.98,10.38,15.34,21.08,29.28,23.73,4.04.77,9.97-1.46,11.18,3.63-.9,5.27-17.62.24-21.26-1.55-8.08-3.98-15.35-14.62-19.4-16.6-8.54-4.19-20.16-3.65-30.95-10.05-4.79-2.84-18.07-14.47-16.26-20.55s8.97,7.78,10.42,9.39c5,5.56,13.94,9.72,21,12,2.04.66,12.34,3.44,13.35,2.85Z"/>
      <path d="M165.5,683c1.09.31,1.86,2.28,1.48,3.48l-1.65,1.35c-16.45-.71-32.67,4.72-46.25,13.75-2.64,1.75-8.82,6.15-10.63,8.37s-2.49,5.97-3.9,7.17c-1.65,1.4-3.54-.79-5.05.81-2.22,2.37-5.67,11.25-7.46,14.6-.62,1.17-.64,2.66-2.54,2.47-1.58.12-2.39-1.09-2.54-2.52-.55-5.12,7.82-14.12,9.15-19.38l4.87.89c0-4.53,4.7-8.72,8-11.52,7.73-6.58,31.73-19.49,41.51-19.49,3.46,0,12.53-.7,15,0Z"/>
      <path d="M194.96,700.03l.55,2.99c-15.38,12.01-34.05,15.02-50,27-4,3-18.75,17.81-21.45,18.57-3.47.97-4.09-3.04-2.05-5.07,9.6-7.3,17.76-16.59,28.06-22.94,12.94-7.97,28.21-11.59,40.89-20.12l4-.43Z"/>
      <rect x="134.11" y="577.54" width="78.03" height="5.95" transform="translate(-405.86 402.33) rotate(-56.29)"/>
      <path d="M215.64,691.08c1.33-.22,3.43,1.92,3.22,3.23-6.29,7.79-9.57,18.83-11.42,28.63-1.02,5.43-2.52,15.27-2.54,20.55s4.49,16.55-1.29,18.44c-4.31-.67-3.85-20.55-3.61-24.43.47-7.5,7.68-45.1,15.63-46.43Z"/>
      <path d="M139.79,665.29c2.88-.16,17.03-1.83,16.2,2.19l-2.7,2.31c-15,1.54-30.26,1.08-44.56,6.44-4.05,1.52-12.41,7.14-15.47,7.6-1.72.26-2.24.04-3.27-1.36-1.11-3.96,12.33-9.3,15.48-10.51,10.93-4.21,22.63-6.04,34.32-6.68Z"/>
      <path d="M115.79,643.29c11.37-1.23,27.21-.65,38.58.83,2.98.39,15.02.98,13.62,5.36-1.03,3.23-14.35-.22-17.5-.48-11.9-1-26.11-1.57-37.9.08-2.89.4-10.67,5.56-10.63.39.03-3.99,10.7-5.85,13.84-6.19Z"/>
      <path d="M435,406.5c-.98-4.86-9.6-10.41-12.43-14.57-1.59-2.34-4.03-5.95-1.05-7.93,4.17-.45,4.41,4.21,6.49,6.5,3.76,4.15,9.8,7.66,11.53,13.47s.53,10.05.42,15.49c-.06,3.12,1.09,15.72-1.47,16.52-1,.52-3.48-.67-3.48-1.48v-28Z"/>
      <path d="M209.68,514.14l3.26,2.49c.31,1.72-16.16,13.29-18.95,15.86-6.74,6.23-12.9,14.09-18.98,21.02-11.45,2.36,2.25-11.03,4.96-14.04,8.71-9.65,18.75-18.31,29.71-25.34Z"/>
      <path d="M170.83,617.81l-3.87-.28-.53-2.57c7.25-11.56,14.91-28.88,27.25-35.78,3.22-1.8,11.25-3.52,7.34,1.34-2.07,2.58-8.87,5.69-12.02,8.98-7.11,7.43-12.59,19.58-18.17,28.3Z"/>
      <path d="M354.28,426.73c-.74-.77-1.09-2.11-1.26-3.16.87-3.52,9.26,1.08,12.49,1.42,16.89,1.78,20.6-5.49,31.98-15.02l2.5,1.57c1.31,5.04-15.36,16.81-19.97,18-5.1,1.31-21.99,1.09-25.75-2.8Z"/>
      <path d="M175.19,727.23c1.55-.89,3.84-.24,4.81,1.29.79,3.96-12.15,11.21-15,13.99-4.79,4.67-8.19,12.79-12.14,16.86-3.09,3.18-5.69,1.26-4.68-2.63.88-3.39,12.15-16.95,15.28-19.76,2.94-2.64,6.7-4.72,9.9-7.15,1.02-.77,1.53-2.43,1.82-2.6Z"/>
      <path d="M437.51,193.01c1.42-.41,2.73.29,3.35,1.64,5.36,9.04,14.7,16.07,20.55,24.45,4.25,6.09,2.06,9.73-3.44,4.44-4.53-4.36-14.9-16.45-18.38-21.62-1.07-1.59-6.02-7.77-2.08-8.9Z"/>
      <path d="M198.19,350.83c-2.45-4.16,3.32-7.1,7.28-1.81,4.77,6.36,1.68,18.02,6,22,1.34,1.24,8.76,3.55,4.56,6.51-3.25,2.29-9.45-3.56-10.9-6.17-3.42-6.17-.42-14.62-4.12-18.92-.76-.89-2.61-1.25-2.82-1.61Z"/>
      <path d="M463.91,356.09c3.3,1.91-6,17.73-7.38,20.94-1.89,4.38-2.37,8.28-3.74,12.26-1.28,3.68-4.88,1.96-4.87-2.78.01-8.87,11.01-20.94,12.22-30.36l3.78-.06Z"/>
      <path d="M307.01,390c.19-6.4,3.89-11.37,5.55-17.94.63-2.51.07-11.55,4.93-10.05,3.37,1.04-.7,15.38-1.71,18.27-1.3,3.72-4,11.11-8.77,9.72Z"/>
      <path class="cls-1" d="M329.7,277.3c1.13,1.62,4.05,11.83,4.29,14.21,3.2,31.54-16.21,63.93-49.45,66.52-11.05.86-22.77,1.44-30.6-7.47-13.06-14.86-14.98-32.71-15.02-52.07,0-2.12,1.07-10.73,2.01-12.07,2.17-3.08,18.08-9.58,22.28-10.72,13.75-3.73,41.47-6.79,55.23-4.64,2.13.33,10.19,4.7,11.26,6.24ZM312.75,290.23c-3.89-3.52-20.93-4.77-26.24-4.22-7.57.78-31.02,13.53-28.42,22.34,4.02,4.77,4.48-1.19,6.36-3.4,2.6-3.05,5.96-5.44,9.05-7.95-1.49,12.92,12.87,12.19,16.78,2.71,1.24-3.01-1.1-5.63.87-8.57,5.65-2.48,15.28,4.03,19.39,3.8,2.51-.14,4.22-2.9,2.21-4.71Z"/>
      <path class="cls-1" d="M448.86,235.14c.76,7.12,2.73,15.35,3.18,22.32.85,12.98-2.09,41.36-10.52,51.56-7.71,9.33-29.56,7.74-40.57,5.53-15.09-3.03-23.67-10.53-31.47-23.53-2.34-3.91-11.93-23.79-10.01-27.02,3.41-2.08,4.76-5.47,8.19-7.84,6.01-4.15,16.61-9.05,23.57-11.43,18.32-6.25,38.16-10.41,57.62-9.6ZM392,262h20.5c.84,0,3.39,2.5,5.03.01.95-1.43-.38-3.76-1.76-4.35-1.48-.63-13.67-1.66-16.24-1.71-6.89-.15-12.26,1.77-18.2,4.88-2.4,1.26-15.72,9.7-15.33,11.65,1.08,5.33,11.28-3.13,11.99-2.48.73,14.91,23.89,2.48,17.58-6.08-.98-1.33-3.77-.02-3.57-1.92Z"/>
      <path class="cls-1" d="M354.99,270c2.63,9.42,7.33,20.46,13.01,28.5,1.81,2.56,7.22,6.9,8.46,9.54.89,1.9.51,4.09,1.66,6.34,3.47,6.74,27.92,17.77,23.4,27.59-2.39,5.2-16.73,4.35-21.52,8.52-.93.81-2.35,6.55-5.01,8.99-8.67,7.99-23.85-1.73-32.73-3.26-4.36-.75-13.1,1.17-15.71-2.29-1.11-1.47-2.5-10.68-2.01-12,.58-1.56,7.18-8.84,8.84-12.06,6.87-13.26,7.9-26.62,5.52-41.31-.68-4.23-3.63-8.06-2.9-12.56l18.97-6.02Z"/>
      <path class="cls-1" d="M288.5,116c-6.48.77-19.83,4.49-26.52,6.48-22.04,6.56-40.45,22.57-57.48,37.5-5.12-3.49,5.84-15.63,3.49-17.97-5.14-.94-6.94,3.85-8.01,7.99-3.77.58-.61-5.59-4.48-6.98-2.65,1.05-2.14,5.57-3.45,6.53-.68.5-8.29,1.9-10.04,1.96,4.24-4.09,8.87-7.93,13.68-11.32,3.4-2.39,13.52-7.07,15.37-9.63,1.17-1.63.88-3.77,1.75-5.25,2.03-3.44,4.96-6.42,6.21-10.29l2.51,4,4.47-2.01c-1.82,5.45,17.32,13.73,16.01,7.52l-12.98-9.01c-.07-3.41,16.1-3.81,18.51-3.52,4.74.57,5.67,3.82,9.95,5.02,4.55-4.36-5.15-10.35-9.47-10.01l7.42-2.01c1.94,3.93,7.08,2.93,10.93,5.17s7.94,11.47,11.41,5.37c.07-.82-3.91-5.98-4.88-6.9-4.26-4.07-9.19-3.57-10.89-9.6,3.63-.91,4.6,1.92,7.37,2.93,3.78-5.05,7.86-4.06,13.63-3.95-.86,5.09,3.09,13.48,7.64,15.86,2.11,1.11,5.41,2.09,5.39-1.36-.01-2.64-3.72-3.6-5.06-5.26-2.5-3.09-2.09-6.71-3.52-9.22-.89-1.58-5.05-3.13-5.46-6.01,6.54-.97,13.38-2.01,19.8.19l2.19,12.8c-2.74-.45-5.23-10.69-8.53-6.03-1.37,1.93.48,5.65,1.69,7.38,3.01,4.31,9.62,5.53,12.85,9.65-6.84.58-14.82-.79-21.5,0ZM221.72,124.15c-7.43,1.17-13.43,19.8-7.18,21.81,5.35,1.73,1.77-7.9,4.05-11.88.62-1.07,12.19-11.36,3.13-9.93Z"/>
      <path class="cls-1" d="M340,103.02c-3.76,6.55-1.75,11.69.99,17.98l-21.07-3.45c-2.6-.15-2.01-3.06-3.21-4.26-.94-.95-2.61-1.39-3.77-2.73-4.06-4.7-4.45-8.41-3.95-14.56.58-.58,10.77.54,12.29,1.21,1.81.79,1.83,3.11,3.36,3.64,3.52,1.22,10.98-.76,15.35,2.17ZM318.62,99.06c-4.98,1.41-1.65,13.67,1.86,12.93,2.88-2.19,2.21-13.61-1.86-12.93ZM334.73,113.71c1.7-1.61,3.18-7.71,1.79-9.74-4.8-7.01-10.02,17.54-1.79,9.74Z"/>
      <path class="cls-1" d="M368.99,108.01c.32,1.84-1.85.52-2.78,1.16-.82.56-.53,2.84-1.44,3.6-.63.53-14.46,4.95-15.54,5.07-6.11.67-6.59-8.76-5.19-12.8,8.77-1.96,16.7-.23,24.95,2.97Z"/>
      <path class="cls-1" d="M170.79,276.8l-7.78,5.2c.26-5.12-.37-10.43-.05-15.54.46-7.26.23-14.82,8.03-17.46l-.2,27.8Z"/>
      <path class="cls-1" d="M180.99,230.01c-6.53-3.88-7.72,12.61-9.17,13.82-.62.51-3.58.14-4.81,1.17-1.51-1.9,6.08-23.32,8.53-25.96,2.75-2.95,7.49-1.33,3.89-7.04l2.56-2-1,20.01Z"/>
      <path class="cls-1" d="M193.99,170.01c.74.84-10.72,16.51-10.01,19.99l-1.98-.62c-1.29-2.85-6.14-3.49-9-4.39-.45-.57,9.12-9.9,10.04-10.45,2.95-1.77,5.24-1.18,7.76-2.21,1-.41,1.71-4.02,3.19-2.32Z"/>
      <path class="cls-1" d="M183,196.01l-1.04,8.95c-7.38-.24-7.16,9.24-15.95,8.03,2.15-7.58,8.93-15.88,16.99-16.99Z"/>
      <path class="cls-1" d="M175.99,191.01l-10.43,11.06-7.55,14.93c-.06-5.14,7.22-24.49,11.7-25.79,1.97-.57,4.25-.11,6.29-.2Z"/>
      <path class="cls-1" d="M188,166.01c.69,2.93-3.04,1.9-5.4,3.08-7.7,3.86-10.83,10-16.59,15.9.33-6.41,15.71-25.53,21.99-18.98Z"/>
      <path d="M312.75,290.23c2.01,1.82.3,4.58-2.21,4.71-4.11.22-13.74-6.29-19.39-3.8-1.97,2.94.37,5.56-.87,8.57-3.91,9.49-18.27,10.21-16.78-2.71-3.1,2.5-6.46,4.89-9.05,7.95-1.88,2.21-2.34,8.17-6.36,3.4-2.6-8.81,20.85-21.56,28.42-22.34,5.32-.55,22.36.7,26.24,4.22Z"/>
      <path d="M392,262c-.2,1.9,2.59.59,3.57,1.92,6.31,8.56-16.85,20.99-17.58,6.08-.71-.65-10.9,7.82-11.99,2.48-.4-1.95,12.92-10.39,15.33-11.65,5.94-3.11,11.31-5.03,18.2-4.88,2.57.05,14.77,1.09,16.24,1.71,1.38.59,2.71,2.92,1.76,4.35-1.64,2.49-4.19-.01-5.03-.01h-20.5Z"/>
      <path d="M221.72,124.15c9.06-1.42-2.51,8.86-3.13,9.93-2.28,3.98,1.3,13.61-4.05,11.88-6.25-2.01-.25-20.65,7.18-21.81Z"/>
      <path d="M318.62,99.06c4.08-.68,4.75,10.74,1.86,12.93-3.51.74-6.84-11.52-1.86-12.93Z"/>
      <path d="M334.73,113.71c-8.23,7.8-3.01-16.75,1.79-9.74,1.39,2.02-.09,8.13-1.79,9.74Z"/>
    </g>
  </g>
</svg>