<?xml version="1.0" encoding="UTF-8"?>
<svg id="Layer_2" data-name="Layer 2" xmlns="http://www.w3.org/2000/svg" viewBox="0 0 2426 703">
  <defs>
    <style>
      .cls-1 {
        fill: #fff;
      }
    </style>
  </defs>
  <g id="Layer_1-2" data-name="Layer 1">
    <g>
      <path d="M0,352V0h2426v461c-18.03-5.56-40.79,1.56-58.69-3.81-3.35-1-8.14-5.27-11.06-5.94-3.99-.91-8.35.64-12.21-.79-4.2-1.56-7.69-10.7-14.77-12.32-2.74-.63-8.71,5.06-16.54,2.62-4.1-1.28-3.32-6.38-4.67-7.33-1.98-1.41-9.14.27-12.35-.65-2.61-.75-6.41-5.43-12.34-5.74-4.23-.23-7.33,1.9-10.89,1.94-24.68.25-36.7-8.56-61.29-1.28-27.45,8.13-54.7,7.87-82.63,12.37-9.59,1.55-19.7,6.57-31.1,6.9-11.22.32-21.11.46-31.96,1.05-14.17.77-37.36,1.74-50.95.9-7.69-.47-7.33-6.9-10.06-6.97l-101.42,116.42,9.52,8.37c15.16-.31,32.94-2.11,47.92-.77,69.76,6.2,129.23,2.99,199-1.93,10.21-.72,31.24-.21,38.95-5.06,2.29-1.44,4.96-6.09,7.24-6.77,5.1-1.5,11.59,1.24,15.54.62,4.19-.66,9.28-8.42,15.35-8.82,2.41-.16,19.37,2.66,22.38,3.49,20.31,5.58,9.88,10.31,35.75,3.73,3.01-.77,7.12.47,9.59-.41,2.63-.94,1.37-4.74,5.06-6.93,5.04-3,18.94-.53,26.19-3.72,14.16-6.25,8.6-9.42,28.82-8.46,1.65.08,3.9-3.61,4.37.51l-3.63,15.62c4.25,2.89,7.76-.46,11.45-.77,14.08-1.16,23.09,1.28,12.58-16.45l10.66-15.95c-11.77-13.98-14.05.92-17.81,2.83-14.58,7.4,2.5-18.47,1.96-20.95-.17-.8-16.53-8.14-3.44-9.5,1.71-.18,12.46,3.59,13.51,4.38,1.22.92.7,3.68,1.5,4.5,5.09,5.2,24.19,5.95,25.03,7.02.63.8.49,19.34.21,20.31-.77,2.71-8.33,8.37-8.69,11.13-1.56,11.86,6.51,8.24,13.89,9.59v159H0v-119c19.25,1.14,38.95-2.3,58.5-2.08,10.77.12,21.98,3.01,31.99,3.17,5.67.09,50.81-6.7,49.33,4.43l-68.39,36.46c-.42,6.21,17.7,20.09,21.81,19.86,89.96-35.6,179.48-73.47,268.76-109.84-33.53,17.77-72.09,28.82-105.79,45.75-1.28.64-2.79-.69-2.2,2.24,4.95,1.94,13.8-5.61,15.53-5.56,2,.06,5.42,3.28,8.59,3.94,12.95,2.69,14.24-2.5,24.72-5.03,15.04-3.64,26.71-1.06,41.66-.92,6.49.06,25.34-3.08,29.47.11,1.94,1.5,1.15,4.64,4.53,5.47,3.05.75,16.06.25,20,0,4.16-.27,7.69-3.11,11.97-3.05,3.98.06,11.16,3.49,15.1,3.98,5.79.72,13.29-.92,18.72.28,2.75.61,5.54,4.16,8.43,4.57,17.33,2.41,44.51-.68,62.75,3.25,5.55,1.19,13.46,5.28,21.25,5.74,13.14.78,20.25-8.19,12.29,16.22,9.51,1.21,20.87-9.77,29.33-6.82.7.24,8.19,7.56,9.3,7.72.89.12,8.54-3.1,13.83-1.86,2.79.65,3.89,3.66,5.17,3.85.69.1,11.16-2.62,13.63-3.11,1.41-.28,2.25-2.57,4.27-2.8,3.13-.36,5.11,3.09,6.98,3.04,3.88-.1,2.19-6.26,11.41,1.56,1.91,1.62,2.07,7.09,7.53,6.45,2.59-.3,6.57-6.36,14.13-6.07,4.69.18,8.44,4.88,13.41,2.55,2.81-1.32,5.78-13.24,10.47-13.48,5.81-.3,9.52,10.19,11.17,10.84,5.09,2,14.08-1.98,18.74-1.53,3.63.36,9.65,5.53,13.22,5.64,5.63.18,5.04-6.16,14.91.03,4.8,3,6.96,10.36,12.97,10.77,16.87,1.15,40.76-8.57,58.15-11.66,5.09-.9,11.24.48,16.64-.36,11.04-1.7,26.99-10.98,38.48-12.52,5.96-.8,13.98,1.27,17.75.76,1.49-.2,11.36-5.31,13.26-5.75,31.5-7.24,62.96-3.88,94.24-7.66,3.92-.47,8.39-3.48,10.58-3.58,3.92-.18,6.03,4.16,9.94,4.06,4.73-.11,17.04-5.68,23.43-6.63,18.91-2.8,39.82.36,58.55-8.43h63.97c3.65.13,2.93,4.93,5.18,5.83,2.36.95,11.1,1.41,14.59,2.41,66.21,19,128.72,9.21,196.22,9.69,51.83.36,107.94,7.32,159.96.95,4.32-.53,9.19-4.18,12.21-4.59,12.43-1.72,34.63-5.63,45.91-6.29,8.23-.48,21.53,2.8,28.89,1.97,2.71-.31,5.82-3.32,10.2-3.88,6.75-.86,13.64-.61,20.38-.13-53.18-12.64-105.51-27.36-155.98-48.51-31.99-13.4-65.68-33.84-97.49-45.51-35.54-13.05-78.14-22.18-115.53-34.48-3.06-1.01-3.82,1.43-7.61-3.38l-4.9,4.93c-5.08-4.09-30.52-11.78-30.59-.54-.05,8.15,13.54,10.73,14.09,11.52,1.6,2.3-6.95,8.05-8.77,8.72-13.14,4.8-60.2,10.15-73.78,8.32-4.56-.62-12.13-5.18-10.35-10.37.61-1.78,7.84-3.86.93-10.21-3.21-2.95-25-4.25-30.52-4.55-23.18-1.27-47.55,2.05-70.95-.98-37.81-4.89-72.19-8.46-111.07-8.93-2.59-.03-4.96-1.94-7.01-1.89-3.45.08-6.99,4.57-11.22,5.65-5,1.27-25.4-2.14-24.09,5.58,6.38,8.36,19.21,5.13,29.07,7.9,3.4.95,21.32,8.62,12.51,13.01-10.16-1.13-19.62,1.79-29.31,1.79-22.46-.02-46.8,1.29-67.96-.03-28.58-1.78-19.27-4.44-41.35-12.49-10.86-3.96-29.28-5.75-40.17-9-6.95-2.08-21.64-9.99-27.6-13.4-4.41-2.52-23.63-3.24-31.92-5.08-1.3-.29-3.29,1.18-4.77.81-2.35-.59-2.5-3.74-2.7-3.85-1.23-.64-3.69,2.89-6.34,1.92-4.1-1.49,3.16-9.01-5.41-12.65-9.49-4.03-9.41,1.23-13.17,2.34-14.03,4.14-35.93-7.33-49.56-7.53-6.37-.1-14.12,5.46-18.76,7.67-1.25.59-8.54-.69-5.72,3.24-1.36-.02-2.62-1.04-4.04-.55-81.32,28.04-161.89,74.46-243.96,102.56,28.73-13.79,58.54-25.5,87.95-38.08-2.38-3.68.81-.66,3.05-1.38,2.43-.78,5.31-2.24,7.79-3.24,65.66-26.67,130.28-57.71,196.16-82.83,12.4,11.5,20.32,16.86,10.07-4.97l18.91-7.58c-2.21-3.53.49-.76,2.76-1.67,10.88-4.4,26.2-10.35,36.18-15.9,5.42-3.02.84-5.29,7.2-2.81l96.92-43.11c3.73-.62,12.24,10.23,17.99,10.58-2.58-5.87-2.65-11.09-6.99-15.98l88.78-39.84,3.15.34,15.05,9.49-5.88-13.67c.01-3.9,54.4-24.74,61.65-29.14,3.72-2.12,18.91,10.13,20.24,8.8-.24-3.91-8.63-12.84-5.97-15.47,29.34-11,58.41-27.59,87.98-37.52-2.06,1.13-13.03,6.29-12,7.98l89.84,44.85c1.22-4.59,3.7-2.01,7.15-1.85-25.1-16.2-49.54-33.56-70.05-55.52-1.64-.6-12.19,3.61-14.95,4.53,8.53-4.68,41.19-21.06,49-22.57,1.8-.35,2.14-.45,4.01-.01,3.91.9,49.04,40.9,49.97,44.1,2.5,8.54-22.76-8.05-20.9-.17,8.71,15.33,24.99,24.93,36.49,37.57.63.7,10.89,13.87,11.26,14.73,5.22,12.02-10.66-6.41-9.59,2.14l42.75,20.21-1.98,1.97,242.39,126.93c3.97-.97,5.75-26.67,20.63-23.44,2.22.48,19.19,9.52,19.8,11.2,2.79,7.79-9.7,25.91-8.4,28.33,2.88,5.36,59.84,26.05,68.43,32.86,4.03,2.3,9.86,1.34,13.4,2.38,2.51.74,5.42,4.8,7.26,4.78s2.85-2.83,5.05-3.06c10.62-1.13,13.79,3.35,20.96,5,3.58.82,10.83-.45,13.71.2,54.3,12.37,114.32,35.57,166.51,55.57,26.47,10.15,58.99,21.19,83.62,35.39,5.31,3.06,1.53,7.52,9.62-2.64-8.05-5.74-16.96-14.91-25.44-19.64-2.16-1.21-4.13.43-4.52.15s-.96-6.4-3.5-9.03c-2.92-3.03-33.14-21.86-38.83-25.17-20.06-11.65-40.26-18.41-56.75-36.25-2.68-2.9-3.97-8.76-6.86-11.14-2.47-2.03-8.57-2.65-9.58-4.42-3.4-5.97-2.78-22.99.76-29.27s6.77-3.48,9.87-6.13.84-7.97,8.88-7.63l-6.99-14.98c2.39-4.12,36.67,15.4,40,19.98l-20-6.98,1.01,1.48,35.38,15.56c61.1-43.68,125.41-83.99,187.65-126.5,10.48-3.88,22.63,1.02,32.39.37,7.52-.5,19.6-5.94,27.57-6.93l-10-9.98c4.05-.3,8.6,6.59,11.03,7.46,7.4,2.65,65.57-3.84,78.44-4.5,66.09-3.43,131.42-4.82,198.03-8.87,1.41-.09,5.22-.17,5.49-2.08-12.92-4.46-25.42-11.21-38.6-14.97-2.8-.8-7.08.13-7.4-.06-.16-.09,1.11-1.93,1.01-1.98-2.92-1.55-13.67-2.62-17.53-2.99-23.96-2.31-49.03-2.56-72.98-3.99-41.12-2.47-84.73-4.54-127.03-7.14-1.83-.11-1.02,2.29-2.87,2.16-12.01-.84-24.82-2.57-36.95-3.43-22.83-1.61-45.72-5.49-68.64-5.6l1.52,2.97c-20.08-10.3-40.18-22.12-60.85-31.16-35.5-15.51-52.09-17.04-84.14,8.21-47.56,37.47-95.25,95.84-144.23,128.77-11.46,7.71-35.89,18.92-49.67,18.11-6.57-.39-49.71-26.41-59.6-31.46-72.06-36.81-146.06-69.69-218.56-105.44l-1.96,1.97-105.52-50c3.06-3.32,14.39,4.67,16.48,4.03,1.59-3.34-3.4-6.03-5.4-8.7-2.8-3.73-6.37-9.26-10.53-13.37-1.77-1.74-23.06-17.72-21.54-18.94l190.44-10.06c13.99-2.57,22.92,5.56,35.54,9.04l-6.99-9.98c24.04-.13,48.48-4.13,72.46-4.05,4.14.01,10-.52,13.82.25,8.92,1.8,31.78,21.86,12.71-1.2,102.56-4.27,205.11-8.05,307.53-15.13,7.22,3.76,26.49,16.12,12.47-.88l73.54-3.96,5.95-2.14c18.39,1.22,39.39-.84,55.94-1.82,27.07-1.61,54.06-3.06,80.06-6.18,1.24-.15,4.34,2.49,9.8,2.06s13.04-.49,19.15-.94c12.03-.88,26.07-4.58,38.1-5.13,1.69-.08,1.48,2.18,2.1,2.15,11.27-.56,28.44-.27,39.64-2.02.99-.15.43-2.49,4.14-3.09,4.55-.73,8.23,1.57,11.47,1.59,19.72.1,43.3-2.13,63.58-3.54,22.49-1.56,44.92-4.77,67.52-4.99l-16.97-6.52c-165.05-.67-331.31-1.3-496.56,2.49-155.85,3.58-315.78,18.26-470.91,18.09-21.93-.02-35.75-11.05-49.05-11.05h-16.5c1.26,7.85,12.72,7.78,17.99,11.99l-148.35,4.87c-31.05-7.89-69.45-9.99-99.67-18.33-51.65-14.25-94.29-57.05-154.44-58.56-29.17-.73-69.26,13.77-78.59,44.48-5.69,18.73,5.76,20.96,9.55,2.56,1.78,3.54,27.36,24.16,29.5,22,1.42-6.17,5.26-21.89,14.04-19.56,18.64,4.95,3.13,18.61,2.11,30.38l91.85,49.16c-3.09,2.86-8.06.04-8.51.13-.61.12-6.82,9.76-9.48,6.88-.57-.61,5.14-14.97-2.33-12.03-5.71,2.25,1.94,18.99-9.91,16.84l-66.76-35.8.02,28.54c-16.12-3.67-16.6-13.74-18.02-28.08-.39-3.97,1.81-7.81.08-11.02-3.84-7.14-39.48-21.38-42.58-34.44-9.65,16.15-3.42,35.63,5.54,50.45,10.99,18.19,23.58,29.33,45.58,31.2,5.2.44,12.32-2.66,17.62-1.41,1.4.33,24.12,12.33,25.51,13.43.81.65,1.81.05,1.24,2.3-4.42.49-10.25,6.16-14.41,6-7.58-.3-21.33-16.46-37.05-17.01-28.67-1,18.29,23.47,16.47,27.02l-333.2,146.31-150.87,76.12c-22.72,4.32-45.71-2.33-67.55-4.09-9.22-.74-22.28,2.46-30.92,1.7-6.26-.55-16.12-5.46-22.82-3.09-1.2.42-.53,4.88-4.11,5.04-1.46.07-2.99-1.69-4.27-1.73-17.11-.55-33.81-2.86-50.47-4.5-7.75-.76-7.16-5.87-12.36-6.7-9.5-1.51-24.3,4.16-34.78-2.14-5.32,5.39,7.39,12.4-.55,16.65-17.59.14-34.97,1.47-52.63,1.48-8.85,0-19.28.32-28,0-6.68-.25-31.74-7.19-36.01-1.09-1.45,2.08.36,8.38-.66,11.34-1.77,5.14-14.56,1.66-19.26,2.74-2.97.68-2.97,3.31-6.98,4.02-6.16,1.1-30.07-3.55-32.43.07-.89,1.36,2.56,12.24-1.11,15.87,18.47-3.69,19.81,13.77.56,9.94-3.53-.7-4.47-3.33-7.09-3.91-6.7-1.47-12.61,3-18.47-2.03v-77c13.55-4.77,25.82,3.15,38.62,4.95,15.73,2.22,36.45,1.16,51.82,4.11,4.31.83,5.6,4.54,9.16,5.84,3.06,1.12,31.42,2.01,33.77,1.15,1.14-.42.63-3.57,2.63-4.61.91-.47,10.52.26,12.32-.41,1.23-.45,2.33-6.85,6.69-6.55-1.19-3.15-7.32-.86-10.3-1.7-1.7-.48-10.16-6.56-12.41-7.59-1.91-.87-4.75.49-7.87-1.13-7.35-3.83-2.44-27.12-16.17-29.83-2.99-.59-10.82.4-12.12-.38-.8-.48-.51-5.48-3.84-6.66-3.97-1.41-15.08-1.42-20.51-2.49-5.05-1-11.92-5.72-16.07-4.51-2.21.64-2.39,3.64-6.18,3.86-4.66.27-9.79-5.14-15.14-5.96-10.91-1.68-23.34,4-34.4-2.1ZM916.99,127c.06-5.36,7.15-14.56,6.05-19.47-.41-1.86-7.21-6.18-8.53-6.19-4.85-.02-9.06,14.08-10.37,18.05l12.85,7.6ZM899,146v15.5c0,5.03,5.92,17.58,11.51,16.47,2.29-.46-.38-21.47.33-25.31l-11.83-6.67ZM1086.89,222.12c-5.02-3.14-7.88,10.41-5.98,13.45,5.43,8.68,8.34-11.97,5.98-13.45ZM1097.99,244c-.42-4.35,4.76-12.65.03-15.53-4.73-2.88-10.09,17.54-.03,15.53ZM1109.33,259.65c-15.55-9.64-31.46-18.64-47.94-26.63l-29.38,12,72.5,36.7c5.16-4.33,13.97-8.64,14.34-16.4.09-1.84-7.95-4.7-9.52-5.67ZM1076,303.99c-24.13-16.09-49.09-32.01-75.99-42.98l75.99,42.98ZM1269.74,319.26c-4.78-5.05-12.79,14.63-2.21,14.73,2.21.02,4.4-12.83,2.21-14.73ZM1279.09,326.09c-1.35.87-5.42,17.38,2.42,15.88,3.56-.68,5.56-21.05-2.42-15.88ZM1296.99,350c.84-.52,4.79-19.39-2.4-16.96-2.03.69-4.14,10.21-3.61,12.45s5.65,4.74,6.01,4.52ZM1148.09,349.12c.24-.55,8.78-3.7,4.93-7.65-1.32-1.36-20.96-7.41-22.02-6.47,1.7,3.94,11.95,22.5,15.4,22.06,4.87-.62,1.49-7.49,1.69-7.94ZM1311.99,357c-.41-3.75,2.51-8.82,1.84-12.26-2.73-14.15-17.15,12.54-1.84,12.26ZM1325.98,365c1.21-2.71,4.53-17.54-1.33-16.9-4.1.45-8.71,18.11,1.33,16.9ZM791.8,356.2c-2.45-2.94-21.5,6.05-20.8,7.78,9.32,7.15,26.72,9.35,20.8-7.78ZM1340.99,373c.27-4.38,4-11.7,1.1-15.58-4.96-6.64-13.92,16.18-1.1,15.58ZM1355.98,380c3.95-2.56,1.68-24.63-4.77-13.28-3.61,6.35-.02,16.38,4.77,13.28ZM1368.69,372.1c-4.28,1.02-6.72,16.92,1.83,14.8,2.27-.56,5.47-16.54-1.83-14.8ZM889,382c.89-4-16.72-7.17-18.54-7.06-7.57.44-.5,7.06,1.04,7.06h17.5ZM1459.6,446.43c-31-22.94-81.13-39.97-114.82-60.79-16.94.46-60.51-12.26-19.68,10.77,26.31,14.83,95.06,48.28,122.86,53.13,3.74.65,18.79,2.18,11.64-3.11ZM768.01,399.99c-5.78-2.32-9.18,4.24-13.43,3.99-2.83-.16-9.32-6.24-13.13-6.93-5.7,1.86-31.9-3.24-34.87-.98-7.69,5.85,9.16,11.4,9.42,12.45.35,1.37-4.25,5.08-4.76,7.25-.84,3.61.95,6.17.55,8.52-.63,3.69-4.38,7.45-5.79,10.71.66.5,11.36-6.03,15.41-5.98,8.25.1,18.45,4.81,25.13,5.93,16.99,2.86,12.9-9.72,22.9-10.78,4.4-.47,20.24,2.64,24.82,4.07,3.41,1.07,11.89,6.58,13.29,6.79,7.17,1.07,13.78-6.07,20.07-5.96,3.93.07,5.17,3.09,8.09,3.72,4.09.88,26.69-.75,29.3-3.29,2.14-2.07-.57-4.52.13-6.76.77-2.47,3.45-4.21,3.7-5.46.73-3.57-8.87-15.3-12.36-15.27-2.66.02-3.89,5.34-5.03-1.08l-83.45-.93ZM1536.99,451c.49-7.12,9.57-17.35,6.84-24.33-.32-.83-14.43-8.23-15.61-8.45-10.19-1.94-11.08,14.32-16.11,20.31l9.87,5.48c-3.31-10.74,10.07-13.91,8.98-3.6-.48,4.52-3.87,3.19-3.96,6.59l9.98,4.02ZM830.89,460.09c-6.71-5.39-20.36-7.88-26.26-12.23-2.77-2.04-2.23-4.4-4.89-6.11-2.37-1.53-19.11-4.43-20.75-2.75-7.75,7.91,31.95,16.49,33.74,17.76,4.05,2.86,11.97,23.73,18.16,3.33ZM459.7,632.3c-4.53-3.04-13.31-2.49-17.99-3.51-2.76-.6-4.07-3.18-8.19-3.81-14.33-2.17-35.97,5.3-51.29,3.68-4.79,2.17,1.32,22.32-2.25,24.34-.26.15-2.32-1.95-4.43-2.05-14.07-.68-56.4-2.65-67.06,4.05-8.22,5.17-1.38,14.43-.55,21.55.64,5.49-5.59,11.56,6.52,10.48,3.83-.34,6.67-2.83,10.06-3.1,4.99-.4,13.79,1.25,20.01,1.1,3.4-.08,14.22-3.03,14.98-2.91,2.6.41,1.06,6.65,4.47,5.88-2.19-4.25,13.61-11.19,16.03-11.56,3.99-.6,7.19,1.75,10.44,1.5,3.56-.27,4.58-4.56,8.46-5.52,4.94-1.22,15.63,2.28,16.14-1.93.76-6.33-12.27-2.48-14.99-6.05-1.58-2.08-1.82-8.7.36-10.56,1.52-1.3,31.24,1.22,36.13,1.17,3.37-.03,15.7-.19,17.78-1.21s1.68-4.92,3.63-7.37,6.29-2.82,6.91-5.16c.5-1.87-4.04-8.24-5.17-9Z"/>
      <path class="cls-1" d="M0,483c5.86,5.03,11.77.56,18.47,2.03,2.63.58,3.57,3.21,7.09,3.91,19.25,3.82,17.91-13.63-.56-9.94,3.67-3.63.22-14.51,1.11-15.87,2.36-3.62,26.27,1.03,32.43-.07,4.01-.71,4-3.34,6.98-4.02,4.7-1.08,17.5,2.41,19.26-2.74,1.02-2.96-.8-9.26.66-11.34,4.27-6.1,29.34.84,36.01,1.09,8.72.33,19.14,0,28,0,17.66,0,35.05-1.34,52.63-1.48,7.94-4.25-4.77-11.26.55-16.65,10.48,6.29,25.28.62,34.78,2.14,5.2.83,4.61,5.93,12.36,6.7,16.66,1.64,33.36,3.94,50.47,4.5,1.28.04,2.81,1.8,4.27,1.73,3.58-.16,2.91-4.61,4.11-5.04,6.71-2.37,16.56,2.54,22.82,3.09,8.64.76,21.7-2.44,30.92-1.7,21.84,1.76,44.83,8.4,67.55,4.09l150.87-76.12,333.2-146.31c1.82-3.55-45.14-28.02-16.47-27.02,15.72.55,29.47,16.71,37.05,17.01,4.16.16,9.99-5.5,14.41-6,.58-2.25-.42-1.65-1.24-2.3-1.38-1.11-24.11-13.1-25.51-13.43-5.31-1.26-12.43,1.85-17.62,1.41-22.01-1.87-34.59-13.01-45.58-31.2-8.96-14.83-15.19-34.3-5.54-50.45,3.1,13.06,38.74,27.3,42.58,34.44,1.73,3.22-.47,7.05-.08,11.02,1.42,14.34,1.9,24.41,18.02,28.08l-.02-28.54,66.76,35.8c11.85,2.15,4.2-14.58,9.91-16.84,7.47-2.94,1.76,11.41,2.33,12.03,2.66,2.89,8.87-6.76,9.48-6.88.45-.09,5.41,2.73,8.51-.13l-91.85-49.16c1.02-11.77,16.53-25.42-2.11-30.38-8.78-2.33-12.62,13.39-14.04,19.56-2.14,2.16-27.72-18.46-29.5-22-3.79,18.4-15.24,16.17-9.55-2.56,9.33-30.71,49.42-45.21,78.59-44.48,60.15,1.51,102.79,44.31,154.44,58.56,30.22,8.34,68.62,10.45,99.67,18.33l148.35-4.87c-5.27-4.21-16.73-4.13-17.99-11.99h16.5c13.29,0,27.12,11.03,49.05,11.05,155.14.17,315.07-14.51,470.91-18.09,165.25-3.79,331.52-3.16,496.56-2.49l16.97,6.52c-22.6.22-45.04,3.43-67.52,4.99-20.28,1.41-43.86,3.64-63.58,3.54-3.24-.02-6.92-2.32-11.47-1.59-3.71.6-3.16,2.94-4.14,3.09-11.2,1.75-28.38,1.47-39.64,2.02-.62.03-.41-2.22-2.1-2.15-12.03.55-26.07,4.25-38.1,5.13-6.11.45-13.94.52-19.15.94s-8.56-2.21-9.8-2.06c-26,3.12-52.98,4.57-80.06,6.18-16.55.98-37.55,3.04-55.94,1.82l-5.95,2.14-73.54,3.96c14.02,16.99-5.26,4.64-12.47.88-102.42,7.08-204.97,10.86-307.53,15.13,19.07,23.06-3.79,3.01-12.71,1.2-3.82-.77-9.68-.24-13.82-.25-23.99-.08-48.43,3.92-72.46,4.05l6.99,9.98c-12.63-3.49-21.56-11.61-35.54-9.04l-190.44,10.06c-1.51,1.22,19.78,17.2,21.54,18.94,4.16,4.11,7.74,9.64,10.53,13.37,2,2.67,6.99,5.36,5.4,8.7-2.08.64-13.42-7.35-16.48-4.03l105.52,50,1.96-1.97c72.5,35.75,146.51,68.63,218.56,105.44,9.9,5.06,53.03,31.08,59.6,31.46,13.78.81,38.21-10.41,49.67-18.11,48.97-32.93,96.67-91.31,144.23-128.77,32.04-25.24,48.64-23.72,84.14-8.21,20.68,9.03,40.77,20.86,60.85,31.16l-1.52-2.97c22.93.11,45.81,3.99,68.64,5.6,12.13.86,24.94,2.59,36.95,3.43,1.85.13,1.03-2.27,2.87-2.16,42.31,2.6,85.91,4.67,127.03,7.14,23.95,1.44,49.02,1.69,72.98,3.99,3.86.37,14.6,1.44,17.53,2.99.1.05-1.17,1.89-1.01,1.98.32.18,4.6-.74,7.4.06,13.18,3.75,25.67,10.5,38.6,14.97-.27,1.91-4.09,2-5.49,2.08-66.61,4.04-131.94,5.43-198.03,8.87-12.86.67-71.03,7.15-78.44,4.5-2.42-.87-6.98-7.75-11.03-7.46l10,9.98c-7.97.99-20.05,6.43-27.57,6.93-9.75.65-21.91-4.26-32.39-.37-62.24,42.51-126.55,82.82-187.65,126.5l-35.38-15.56-1.01-1.48,20,6.98c-3.32-4.57-37.61-24.1-40-19.98l6.99,14.98c-8.04-.34-5.88,5.07-8.88,7.63s-6.47.09-9.87,6.13-4.15,23.3-.76,29.27c1.01,1.77,7.11,2.39,9.58,4.42,2.89,2.38,4.18,8.24,6.86,11.14,16.49,17.84,36.7,24.6,56.75,36.25,5.69,3.31,35.92,22.13,38.83,25.17,2.54,2.64,3.1,8.76,3.5,9.03s2.36-1.36,4.52-.15c8.48,4.74,17.38,13.9,25.44,19.64-8.09,10.16-4.31,5.7-9.62,2.64-24.63-14.2-57.14-25.24-83.62-35.39-52.19-20-112.21-43.2-166.51-55.57-2.88-.66-10.14.62-13.71-.2-7.18-1.65-10.35-6.13-20.96-5-2.2.23-3.17,3.05-5.05,3.06s-4.74-4.04-7.26-4.78c-3.55-1.05-9.37-.08-13.4-2.38-8.59-6.81-65.55-27.49-68.43-32.86-1.3-2.42,11.19-20.54,8.4-28.33-.6-1.68-17.58-10.72-19.8-11.2-14.87-3.23-16.66,22.47-20.63,23.44l-242.39-126.93,1.98-1.97-42.75-20.21c-1.07-8.56,14.81,9.88,9.59-2.14-.37-.86-10.63-14.04-11.26-14.73-11.5-12.63-27.77-22.24-36.49-37.57-1.86-7.88,23.4,8.7,20.9.17-.94-3.2-46.07-43.2-49.97-44.1-1.87-.43-2.21-.33-4.01.01-7.81,1.5-40.47,17.89-49,22.57,2.76-.93,13.32-5.14,14.95-4.53,20.51,21.96,44.95,39.32,70.05,55.52-3.45-.16-5.93-2.74-7.15,1.85l-89.84-44.85c-1.03-1.7,9.94-6.85,12-7.98-29.56,9.93-58.64,26.53-87.98,37.52-2.66,2.63,5.73,11.56,5.97,15.47-1.34,1.33-16.52-10.92-20.24-8.8-7.25,4.4-61.64,25.24-61.65,29.14l5.88,13.67-15.05-9.49-3.15-.34-88.78,39.84c4.34,4.89,4.41,10.11,6.99,15.98-5.75-.35-14.26-11.2-17.99-10.58l-96.92,43.11c-6.36-2.48-1.77-.21-7.2,2.81-9.98,5.55-25.31,11.49-36.18,15.9-2.27.92-4.98-1.86-2.76,1.67l-18.91,7.58c10.24,21.83,2.33,16.47-10.07,4.97-65.87,25.12-130.5,56.16-196.16,82.83-2.48,1.01-5.36,2.46-7.79,3.24-2.24.72-5.44-2.3-3.05,1.38-29.41,12.58-59.22,24.29-87.95,38.08,82.07-28.1,162.64-74.52,243.96-102.56,1.43-.49,2.68.53,4.04.55-2.82-3.93,4.47-2.64,5.72-3.24,4.65-2.21,12.39-7.77,18.76-7.67,13.64.21,35.53,11.67,49.56,7.53,3.76-1.11,3.69-6.37,13.17-2.34,8.57,3.64,1.32,11.16,5.41,12.65,2.65.97,5.11-2.56,6.34-1.92.21.11.35,3.26,2.7,3.85,1.48.37,3.47-1.1,4.77-.81,8.28,1.84,27.51,2.56,31.92,5.08,5.95,3.41,20.65,11.32,27.6,13.4,10.89,3.26,29.3,5.04,40.17,9,22.08,8.05,12.77,10.7,41.35,12.49,21.16,1.32,45.5.01,67.96.03,9.69,0,19.15-2.92,29.31-1.79,8.81-4.39-9.11-12.06-12.51-13.01-9.86-2.77-22.69.47-29.07-7.9-1.31-7.72,19.09-4.31,24.09-5.58,4.23-1.08,7.77-5.57,11.22-5.65,2.05-.05,4.42,1.85,7.01,1.89,38.88.47,73.25,4.04,111.07,8.93,23.4,3.03,47.77-.29,70.95.98,5.52.3,27.31,1.6,30.52,4.55,6.91,6.35-.32,8.43-.93,10.21-1.78,5.19,5.79,9.76,10.35,10.37,13.58,1.84,60.64-3.52,73.78-8.32,1.82-.66,10.37-6.41,8.77-8.72-.55-.79-14.14-3.37-14.09-11.52.07-11.23,25.51-3.55,30.59.54l4.9-4.93c3.79,4.81,4.55,2.38,7.61,3.38,37.39,12.31,79.99,21.43,115.53,34.48,31.8,11.68,65.5,32.11,97.49,45.51,50.46,21.15,102.79,35.87,155.98,48.51-6.74-.48-13.63-.74-20.38.13-4.38.56-7.49,3.57-10.2,3.88-7.35.83-20.66-2.45-28.89-1.97-11.28.66-33.48,4.57-45.91,6.29-3.03.42-7.89,4.07-12.21,4.59-52.02,6.37-108.13-.59-159.96-.95-67.5-.47-130.01,9.31-196.22-9.69-3.49-1-12.23-1.46-14.59-2.41s-1.53-5.7-5.18-5.83h-63.97c-18.73,8.78-39.64,5.62-58.55,8.42-6.39.95-18.7,6.51-23.43,6.63-3.92.09-6.03-4.24-9.94-4.06-2.19.1-6.66,3.11-10.58,3.58-31.28,3.78-62.75.41-94.24,7.66-1.91.44-11.77,5.54-13.26,5.75-3.77.51-11.78-1.55-17.75-.76-11.49,1.53-27.45,10.81-38.48,12.52-5.4.83-11.55-.55-16.64.36-17.39,3.09-41.28,12.81-58.15,11.66-6.01-.41-8.18-7.77-12.97-10.77-9.87-6.18-9.28.15-14.91-.03-3.56-.11-9.59-5.28-13.22-5.64-4.66-.46-13.65,3.52-18.74,1.53-1.66-.65-5.36-11.14-11.17-10.84-4.68.24-7.66,12.16-10.47,13.48-4.97,2.33-8.72-2.37-13.41-2.55-7.56-.29-11.54,5.76-14.13,6.07-5.46.64-5.61-4.83-7.53-6.45-9.23-7.81-7.53-1.65-11.41-1.56-1.88.05-3.85-3.4-6.98-3.04-2.01.23-2.86,2.52-4.27,2.8-2.47.49-12.94,3.21-13.63,3.11-1.28-.19-2.37-3.19-5.17-3.85-5.3-1.24-12.94,1.98-13.83,1.86-1.12-.15-8.61-7.47-9.3-7.72-8.46-2.95-19.81,8.03-29.33,6.82,7.97-24.41.85-15.44-12.29-16.22-7.79-.46-15.71-4.55-21.25-5.74-18.24-3.92-45.42-.83-62.75-3.25-2.9-.4-5.69-3.96-8.43-4.57-5.42-1.21-12.93.44-18.72-.28-3.94-.49-11.12-3.92-15.1-3.98-4.28-.06-7.81,2.78-11.97,3.05-3.94.25-16.95.75-20,0-3.38-.83-2.59-3.97-4.53-5.47-4.13-3.19-22.98-.05-29.47-.11-14.94-.14-26.62-2.72-41.66.92-10.47,2.54-11.77,7.72-24.72,5.03-3.17-.66-6.59-3.89-8.59-3.94-1.73-.05-10.58,7.5-15.53,5.56-.58-2.93.92-1.6,2.2-2.24,33.7-16.94,72.26-27.98,105.79-45.75-89.28,36.37-178.8,74.24-268.76,109.84-4.11.24-22.23-13.65-21.81-19.86l68.39-36.46c1.48-11.13-43.66-4.35-49.33-4.43-10.02-.15-21.22-3.05-31.99-3.17-19.55-.21-39.25,3.22-58.5,2.08v-101ZM1825.01,371.99c3.17,3.94,5.65-16.09,8.49-16.89.34-.1,5.39,4.35,3.54-2.63-10.24-6.52-13.88,17.22-12.03,19.52ZM1811.54,396.54c6.09-11.33,9.78-13.37-6.53-18.53,1.98,2.88.96,26.02,0,27-.73.75-18.96,1.61-19,6.99,16.66.37,18.32-2.03,25.53-15.46ZM209.99,553c-4.09,2.2-8.28-1.6-12.24-.82-4.9.96-2.86,4.65-4.42,5.88-2.13,1.68-10.3-1.18-15.6,1.17s-9.67,10.19-9.73,15.76l41.98-21.99Z"/>
      <path class="cls-1" d="M2426,461v83c-7.38-1.35-15.45,2.27-13.89-9.59.36-2.77,7.91-8.42,8.69-11.13.28-.98.42-19.52-.21-20.31-.84-1.07-19.94-1.81-25.03-7.02-.8-.82-.28-3.58-1.5-4.5-1.05-.79-11.8-4.56-13.51-4.38-13.09,1.36,3.27,8.71,3.44,9.5.53,2.47-16.54,28.35-1.96,20.95,3.76-1.91,6.04-16.81,17.81-2.83l-10.66,15.95c10.51,17.73,1.5,15.28-12.58,16.45-3.69.3-7.2,3.66-11.45.77l3.63-15.62c-.47-4.12-2.72-.44-4.37-.51-20.22-.96-14.65,2.21-28.82,8.46-7.24,3.2-21.15.72-26.19,3.72-3.69,2.2-2.43,6-5.06,6.93-2.47.88-6.58-.36-9.59.41-25.87,6.58-15.44,1.85-35.75-3.73-3.01-.83-19.97-3.64-22.38-3.49-6.07.4-11.16,8.16-15.35,8.82-3.95.62-10.44-2.12-15.54-.62-2.28.67-4.95,5.33-7.24,6.77-7.71,4.85-28.75,4.34-38.95,5.06-69.77,4.92-129.24,8.13-199,1.93-14.97-1.33-32.76.47-47.92.77l-9.52-8.37,101.42-116.42c2.73.07,2.37,6.5,10.06,6.97,13.59.84,36.77-.12,50.95-.9,10.85-.59,20.74-.73,31.96-1.05,11.39-.32,21.51-5.35,31.1-6.9,27.92-4.51,55.18-4.25,82.63-12.37,24.58-7.28,36.6,1.54,61.29,1.28,3.56-.04,6.66-2.16,10.89-1.94,5.93.32,9.73,5,12.34,5.74,3.21.92,10.37-.76,12.35.65,1.34.96.57,6.06,4.67,7.33,7.82,2.44,13.8-3.25,16.54-2.62,7.08,1.62,10.56,10.76,14.77,12.32,3.86,1.43,8.23-.12,12.21.79,2.93.67,7.71,4.93,11.06,5.94,17.9,5.36,40.67-1.75,58.69,3.81Z"/>
      <path class="cls-1" d="M0,352c11.06,6.1,23.49.42,34.4,2.1,5.35.82,10.48,6.24,15.14,5.96,3.78-.22,3.97-3.22,6.18-3.86,4.15-1.2,11.02,3.52,16.07,4.51,5.43,1.07,16.54,1.08,20.51,2.49,3.33,1.18,3.04,6.18,3.84,6.66,1.29.78,9.13-.21,12.12.38,13.73,2.71,8.81,26.01,16.17,29.83,3.12,1.62,5.96.26,7.87,1.13,2.25,1.02,10.71,7.11,12.41,7.59,2.98.84,9.11-1.45,10.3,1.7-4.36-.3-5.46,6.1-6.69,6.55-1.8.67-11.42-.06-12.32.41-2,1.04-1.49,4.19-2.63,4.61-2.35.86-30.71-.03-33.77-1.15-3.56-1.3-4.84-5.02-9.16-5.84-15.37-2.95-36.09-1.9-51.82-4.11-12.8-1.8-25.07-9.72-38.62-4.95v-54Z"/>
      <path class="cls-1" d="M459.7,632.3c1.14.76,5.67,7.13,5.17,9-.62,2.34-5.03,2.79-6.91,5.16s-1.47,6.31-3.63,7.37-14.41,1.18-17.78,1.21c-4.89.04-34.61-2.47-36.13-1.17-2.18,1.85-1.94,8.48-.36,10.56,2.72,3.57,15.76-.27,14.99,6.05-.51,4.21-11.2.71-16.14,1.93-3.88.96-4.9,5.24-8.46,5.52-3.24.25-6.45-2.09-10.44-1.5-2.43.36-18.22,7.31-16.03,11.56-3.41.78-1.88-5.47-4.47-5.88-.75-.12-11.58,2.84-14.98,2.91-6.23.14-15.02-1.5-20.01-1.1-3.39.27-6.23,2.75-10.06,3.1-12.11,1.08-5.87-4.99-6.52-10.48-.83-7.12-7.67-16.38.55-21.55,10.66-6.71,52.98-4.73,67.06-4.05,2.11.1,4.17,2.2,4.43,2.05,3.57-2.03-2.54-22.17,2.25-24.34,15.33,1.62,36.97-5.84,51.29-3.68,4.12.62,5.43,3.21,8.19,3.81,4.68,1.02,13.46.47,17.99,3.51Z"/>
      <path class="cls-1" d="M768.01,399.99l83.45.93c1.14,6.41,2.37,1.1,5.03,1.08,3.49-.02,13.09,11.71,12.36,15.27-.26,1.25-2.93,2.99-3.7,5.46-.7,2.24,2.01,4.69-.13,6.76-2.62,2.54-25.21,4.16-29.3,3.29-2.92-.63-4.16-3.65-8.09-3.72-6.29-.11-12.9,7.03-20.07,5.96-1.4-.21-9.88-5.73-13.29-6.79-4.58-1.43-20.42-4.54-24.82-4.07-10,1.07-5.91,13.64-22.9,10.78-6.68-1.12-16.88-5.83-25.13-5.93-4.06-.05-14.76,6.49-15.41,5.98,1.41-3.25,5.16-7.02,5.79-10.71.4-2.36-1.39-4.91-.55-8.52.51-2.17,5.11-5.87,4.76-7.25-.27-1.05-17.12-6.6-9.42-12.45,2.97-2.26,29.16,2.84,34.87.98,3.8.69,10.3,6.77,13.13,6.93,4.25.24,7.65-6.31,13.43-3.99Z"/>
      <path class="cls-1" d="M1459.6,446.43c7.15,5.29-7.9,3.76-11.64,3.11-27.79-4.86-96.55-38.3-122.86-53.13-40.83-23.02,2.74-10.31,19.68-10.77,33.69,20.82,83.82,37.85,114.82,60.79Z"/>
      <path class="cls-1" d="M1109.33,259.65c1.57.97,9.61,3.84,9.52,5.67-.37,7.76-9.18,12.07-14.34,16.4l-72.5-36.7,29.38-12c16.48,7.99,32.39,16.99,47.94,26.63Z"/>
      <path class="cls-1" d="M1536.99,451l-9.98-4.02c.09-3.39,3.48-2.07,3.96-6.59,1.09-10.3-12.28-7.14-8.98,3.6l-9.87-5.48c5.02-5.99,5.91-22.25,16.11-20.31,1.18.22,15.28,7.63,15.61,8.45,2.73,6.98-6.35,17.21-6.84,24.33Z"/>
      <path class="cls-1" d="M830.89,460.09c-6.19,20.39-14.1-.47-18.16-3.33-1.79-1.27-41.5-9.85-33.74-17.76,1.64-1.68,18.38,1.23,20.75,2.75,2.66,1.71,2.13,4.07,4.89,6.11,5.9,4.35,19.54,6.84,26.26,12.23Z"/>
      <path class="cls-1" d="M916.99,127l-12.85-7.6c1.31-3.97,5.52-18.07,10.37-18.05,1.32,0,8.12,4.33,8.53,6.19,1.1,4.91-5.99,14.1-6.05,19.47Z"/>
      <path class="cls-1" d="M899,146l11.83,6.67c-.7,3.84,1.96,24.85-.33,25.31-5.58,1.11-11.51-11.44-11.51-16.47v-15.5Z"/>
      <path class="cls-1" d="M1148.09,349.12c-.2.45,3.18,7.32-1.69,7.94-3.45.44-13.7-18.12-15.4-22.06,1.06-.94,20.7,5.11,22.02,6.47,3.85,3.95-4.69,7.1-4.93,7.65Z"/>
      <path class="cls-1" d="M791.8,356.2c5.92,17.13-11.48,14.93-20.8,7.78-.7-1.73,18.35-10.72,20.8-7.78Z"/>
      <path class="cls-1" d="M1076,303.99l-75.99-42.98c26.9,10.97,51.86,26.89,75.99,42.98Z"/>
      <path class="cls-1" d="M1340.99,373c-12.83.59-3.87-22.23,1.1-15.58,2.9,3.89-.82,11.2-1.1,15.58Z"/>
      <path class="cls-1" d="M1311.99,357c-15.31.28-.89-26.41,1.84-12.26.67,3.45-2.25,8.52-1.84,12.26Z"/>
      <path class="cls-1" d="M1355.98,380c-4.78,3.1-8.37-6.93-4.77-13.28,6.45-11.36,8.71,10.72,4.77,13.28Z"/>
      <path class="cls-1" d="M889,382h-17.5c-1.54,0-8.6-6.62-1.04-7.06,1.82-.11,19.42,3.06,18.54,7.06Z"/>
      <path class="cls-1" d="M1325.98,365c-10.04,1.21-5.43-16.45-1.33-16.9,5.85-.65,2.54,14.19,1.33,16.9Z"/>
      <path class="cls-1" d="M1296.99,350c-.35.22-5.45-2.2-6.01-4.52s1.58-11.76,3.61-12.45c7.19-2.42,3.24,16.44,2.4,16.96Z"/>
      <path class="cls-1" d="M1269.74,319.26c2.19,1.91,0,14.76-2.21,14.73-10.58-.1-2.57-19.78,2.21-14.73Z"/>
      <path class="cls-1" d="M1279.09,326.09c7.98-5.17,5.98,15.2,2.42,15.88-7.84,1.5-3.77-15.01-2.42-15.88Z"/>
      <path class="cls-1" d="M1368.69,372.1c7.3-1.73,4.1,14.24,1.83,14.8-8.55,2.12-6.11-13.79-1.83-14.8Z"/>
      <path class="cls-1" d="M1097.99,244c-10.06,2.01-4.71-18.41.03-15.53,4.73,2.88-.44,11.18-.03,15.53Z"/>
      <path class="cls-1" d="M1086.89,222.12c2.37,1.48-.55,22.13-5.98,13.45-1.9-3.04.95-16.6,5.98-13.45Z"/>
      <path d="M209.99,553l-41.98,21.99c.05-5.58,4.59-13.48,9.73-15.76s13.47.51,15.6-1.17c1.56-1.23-.48-4.92,4.42-5.88,3.96-.78,8.15,3.02,12.24.82Z"/>
      <path d="M1811.54,396.54c-7.21,13.42-8.88,15.83-25.53,15.46.04-5.37,18.27-6.24,19-6.99.95-.98,1.98-24.12,0-27,16.31,5.16,12.62,7.2,6.53,18.53Z"/>
      <path d="M1825.01,371.99c-1.85-2.3,1.79-26.04,12.03-19.52,1.85,6.98-3.19,2.54-3.54,2.63-2.84.8-5.32,20.83-8.49,16.89Z"/>
    </g>
  </g>
</svg>